<svg xmlns="http://www.w3.org/2000/svg" width="1200" height="740" viewBox="0 0 1200 740" font-family="Helvetica, Arial, sans-serif">
<rect width="1200" height="740" fill="#ffffff"/>
<text x="600" y="34" text-anchor="middle" font-size="23" font-weight="bold" fill="#222">How the proof cuts a cycle into standard pieces (schematic)</text>
<text x="600" y="61" text-anchor="middle" font-size="16" fill="#444">Paper, Sections 9–11 (subdivision, passage words, matching) and the saddle example of Section 1.2</text>
<rect x="50" y="105" width="480" height="480" fill="#fbfbf8" stroke="#555" stroke-width="1.6"/>
<line x1="203.6" y1="585.0" x2="203.6" y2="105.0" stroke="#8c6d1f" stroke-width="1.8"/>
<line x1="366.8" y1="585.0" x2="366.8" y2="105.0" stroke="#8c6d1f" stroke-width="1.8"/>
<path d="M50.0,393.0 L52.6,392.1 L55.1,391.2 L57.7,390.3 L60.2,389.4 L62.8,388.5 L65.4,387.6 L67.9,386.8 L70.5,385.9 L73.0,385.2 L75.6,384.4 L78.2,383.7 L80.7,383.0 L83.3,382.4 L85.8,381.8 L88.4,381.2 L91.0,380.7 L93.5,380.2 L96.1,379.8 L98.6,379.5 L101.2,379.2 L103.8,379.0 L106.3,378.8 L108.9,378.7 L111.4,378.6 L114.0,378.6 L116.6,378.7 L119.1,378.8 L121.7,379.0 L124.2,379.2 L126.8,379.5 L129.4,379.8 L131.9,380.2 L134.5,380.7 L137.0,381.2 L139.6,381.7 L142.2,382.3 L144.7,382.9 L147.3,383.6 L149.8,384.3 L152.4,385.1 L155.0,385.9 L157.5,386.7 L160.1,387.5 L162.6,388.4 L165.2,389.3 L167.8,390.2 L170.3,391.1 L172.9,392.0 L175.4,392.9 L178.0,393.8 L180.6,394.8 L183.1,395.7 L185.7,396.6 L188.2,397.5 L190.8,398.3 L193.4,399.2 L195.9,400.0 L198.5,400.8 L201.0,401.5 L203.6,402.3" fill="none" stroke="#8c6d1f" stroke-width="1.8"/>
<path d="M50.0,225.0 L52.6,225.5 L55.1,226.0 L57.7,226.5 L60.2,227.0 L62.8,227.6 L65.4,228.1 L67.9,228.6 L70.5,229.1 L73.0,229.6 L75.6,230.1 L78.2,230.6 L80.7,231.1 L83.3,231.7 L85.8,232.2 L88.4,232.7 L91.0,233.2 L93.5,233.7 L96.1,234.2 L98.6,234.7 L101.2,235.2 L103.8,235.8 L106.3,236.3 L108.9,236.8 L111.4,237.3 L114.0,237.8 L116.6,238.3 L119.1,238.8 L121.7,239.3 L124.2,239.8 L126.8,240.4 L129.4,240.9 L131.9,241.4 L134.5,241.9 L137.0,242.4 L139.6,242.9 L142.2,243.4 L144.7,243.9 L147.3,244.5 L149.8,245.0 L152.4,245.5 L155.0,246.0 L157.5,246.5 L160.1,247.0 L162.6,247.5 L165.2,248.0 L167.8,248.6 L170.3,249.1 L172.9,249.6 L175.4,250.1 L178.0,250.6 L180.6,251.1 L183.1,251.6 L185.7,252.1 L188.2,252.6 L190.8,253.2 L193.4,253.7 L195.9,254.2 L198.5,254.7 L201.0,255.2 L203.6,255.7" fill="none" stroke="#8c6d1f" stroke-width="1.8"/>
<path d="M203.6,448.0 L206.3,448.1 L209.0,448.2 L211.8,448.2 L214.5,448.2 L217.2,448.1 L219.9,448.0 L222.6,447.8 L225.4,447.6 L228.1,447.4 L230.8,447.1 L233.5,446.8 L236.2,446.4 L239.0,446.0 L241.7,445.6 L244.4,445.1 L247.1,444.7 L249.8,444.2 L252.6,443.6 L255.3,443.1 L258.0,442.5 L260.7,442.0 L263.4,441.4 L266.2,440.8 L268.9,440.3 L271.6,439.7 L274.3,439.2 L277.0,438.6 L279.8,438.1 L282.5,437.6 L285.2,437.1 L287.9,436.6 L290.6,436.2 L293.4,435.8 L296.1,435.4 L298.8,435.0 L301.5,434.7 L304.2,434.5 L307.0,434.3 L309.7,434.1 L312.4,433.9 L315.1,433.9 L317.8,433.8 L320.6,433.8 L323.3,433.8 L326.0,433.9 L328.7,434.1 L331.4,434.2 L334.2,434.5 L336.9,434.7 L339.6,435.0 L342.3,435.4 L345.0,435.7 L347.8,436.1 L350.5,436.6 L353.2,437.0 L355.9,437.5 L358.6,438.0 L361.4,438.6 L364.1,439.1 L366.8,439.7" fill="none" stroke="#8c6d1f" stroke-width="1.8"/>
<path d="M203.6,274.9 L206.3,275.1 L209.0,275.2 L211.8,275.3 L214.5,275.4 L217.2,275.4 L219.9,275.4 L222.6,275.3 L225.4,275.2 L228.1,275.1 L230.8,275.0 L233.5,274.8 L236.2,274.5 L239.0,274.3 L241.7,274.0 L244.4,273.6 L247.1,273.2 L249.8,272.8 L252.6,272.4 L255.3,271.9 L258.0,271.5 L260.7,270.9 L263.4,270.4 L266.2,269.8 L268.9,269.2 L271.6,268.6 L274.3,268.0 L277.0,267.3 L279.8,266.7 L282.5,266.0 L285.2,265.3 L287.9,264.6 L290.6,263.9 L293.4,263.1 L296.1,262.4 L298.8,261.7 L301.5,260.9 L304.2,260.2 L307.0,259.5 L309.7,258.8 L312.4,258.0 L315.1,257.3 L317.8,256.6 L320.6,255.9 L323.3,255.2 L326.0,254.6 L328.7,253.9 L331.4,253.3 L334.2,252.7 L336.9,252.1 L339.6,251.5 L342.3,251.0 L345.0,250.5 L347.8,250.0 L350.5,249.5 L353.2,249.1 L355.9,248.7 L358.6,248.3 L361.4,248.0 L364.1,247.7 L366.8,247.4" fill="none" stroke="#8c6d1f" stroke-width="1.8"/>
<path d="M366.8,364.2 L369.5,364.9 L372.2,365.6 L375.0,366.2 L377.7,366.9 L380.4,367.6 L383.1,368.3 L385.8,369.0 L388.6,369.6 L391.3,370.3 L394.0,371.0 L396.7,371.7 L399.4,372.4 L402.2,373.0 L404.9,373.7 L407.6,374.4 L410.3,375.1 L413.0,375.8 L415.8,376.4 L418.5,377.1 L421.2,377.8 L423.9,378.5 L426.6,379.2 L429.4,379.8 L432.1,380.5 L434.8,381.2 L437.5,381.9 L440.2,382.6 L443.0,383.2 L445.7,383.9 L448.4,384.6 L451.1,385.3 L453.8,386.0 L456.6,386.6 L459.3,387.3 L462.0,388.0 L464.7,388.7 L467.4,389.4 L470.2,390.0 L472.9,390.7 L475.6,391.4 L478.3,392.1 L481.0,392.8 L483.8,393.4 L486.5,394.1 L489.2,394.8 L491.9,395.5 L494.6,396.2 L497.4,396.8 L500.1,397.5 L502.8,398.2 L505.5,398.9 L508.2,399.6 L511.0,400.2 L513.7,400.9 L516.4,401.6 L519.1,402.3 L521.8,403.0 L524.6,403.6 L527.3,404.3 L530.0,405.0" fill="none" stroke="#8c6d1f" stroke-width="1.8"/>
<path d="M366.8,189.5 L369.5,189.8 L372.2,190.0 L375.0,190.3 L377.7,190.6 L380.4,190.8 L383.1,191.1 L385.8,191.4 L388.6,191.7 L391.3,191.9 L394.0,192.2 L396.7,192.5 L399.4,192.7 L402.2,193.0 L404.9,193.3 L407.6,193.6 L410.3,193.8 L413.0,194.1 L415.8,194.4 L418.5,194.6 L421.2,194.9 L423.9,195.2 L426.6,195.5 L429.4,195.7 L432.1,196.0 L434.8,196.3 L437.5,196.6 L440.2,196.8 L443.0,197.1 L445.7,197.4 L448.4,197.6 L451.1,197.9 L453.8,198.2 L456.6,198.5 L459.3,198.7 L462.0,199.0 L464.7,199.3 L467.4,199.5 L470.2,199.8 L472.9,200.1 L475.6,200.4 L478.3,200.6 L481.0,200.9 L483.8,201.2 L486.5,201.4 L489.2,201.7 L491.9,202.0 L494.6,202.3 L497.4,202.5 L500.1,202.8 L502.8,203.1 L505.5,203.4 L508.2,203.6 L511.0,203.9 L513.7,204.2 L516.4,204.4 L519.1,204.7 L521.8,205.0 L524.6,205.3 L527.3,205.5 L530.0,205.8" fill="none" stroke="#8c6d1f" stroke-width="1.8"/>
<circle cx="290.0" cy="340.2" r="5" fill="#222"/>
<text x="290.0" y="362.2" text-anchor="middle" font-size="13" fill="#222" stroke="#ffffff" stroke-width="4" paint-order="stroke">equilibrium</text>
<path d="M477.2,340.2 L477.2,338.1 L477.1,335.9 L477.0,333.8 L476.9,331.6 L476.7,329.5 L476.5,327.4 L476.3,325.3 L476.0,323.1 L475.7,321.0 L475.4,318.9 L475.0,316.8 L474.6,314.8 L474.1,312.7 L473.7,310.6 L473.1,308.6 L472.6,306.6 L472.0,304.5 L471.3,302.5 L470.7,300.5 L470.0,298.6 L469.3,296.6 L468.5,294.7 L467.7,292.7 L466.9,290.8 L466.0,289.0 L465.1,287.1 L464.2,285.3 L463.2,283.4 L462.2,281.6 L461.2,279.9 L460.1,278.1 L459.0,276.4 L457.9,274.7 L456.7,273.0 L455.5,271.4 L454.3,269.7 L453.1,268.1 L451.8,266.5 L450.5,265.0 L449.1,263.5 L447.8,262.0 L446.4,260.5 L445.0,259.1 L443.5,257.7 L442.0,256.3 L440.5,254.9 L439.0,253.6 L437.4,252.3 L435.9,251.0 L434.2,249.8 L432.6,248.6 L431.0,247.4 L429.3,246.2 L427.6,245.1 L425.8,244.0 L424.1,242.9 L422.3,241.9 L420.5,240.9 L418.7,239.9 L416.9,239.0 L415.0,238.0 L413.1,237.1 L411.2,236.2 L409.3,235.4 L407.4,234.6 L405.4,233.8 L403.5,233.0 L401.5,232.3 L399.5,231.6 L397.4,230.9 L395.4,230.2 L393.4,229.6 L391.3,228.9 L389.2,228.3 L387.1,227.8 L385.0,227.2 L382.9,226.7 L380.8,226.2 L378.6,225.7 L376.5,225.2 L374.3,224.8 L372.1,224.3 L369.9,223.9 L367.7,223.5 L365.5,223.2 L363.3,222.8 L361.1,222.5 L358.9,222.2 L356.6,221.9 L354.4,221.6 L352.1,221.3 L349.9,221.0 L347.6,220.8 L345.4,220.6 L343.1,220.3 L340.8,220.1 L338.6,219.9 L336.3,219.8 L334.0,219.6 L331.7,219.4 L329.5,219.3 L327.2,219.1 L324.9,219.0 L322.6,218.9 L320.4,218.8 L318.1,218.7 L315.8,218.6 L313.5,218.5 L311.3,218.4 L309.0,218.3 L306.7,218.2 L304.5,218.2 L302.2,218.1 L300.0,218.1 L297.7,218.0 L295.5,218.0 L293.2,217.9 L291.0,217.9 L288.8,217.9 L286.6,217.9 L284.4,217.8 L282.2,217.8 L280.0,217.8 L277.8,217.8 L275.6,217.8 L273.4,217.8 L271.3,217.8 L269.1,217.8 L267.0,217.8 L264.9,217.9 L262.7,217.9 L260.6,217.9 L258.5,217.9 L256.5,218.0 L254.4,218.0 L252.3,218.1 L250.3,218.1 L248.3,218.2 L246.2,218.2 L244.2,218.3 L242.2,218.4 L240.3,218.5 L238.3,218.6 L236.3,218.7 L234.4,218.8 L232.5,218.9 L230.6,219.0 L228.7,219.1 L226.8,219.3 L225.0,219.4 L223.1,219.6 L221.3,219.8 L219.5,219.9 L217.7,220.1 L215.9,220.3 L214.1,220.6 L212.4,220.8 L210.7,221.0 L208.9,221.3 L207.2,221.6 L205.6,221.9 L203.9,222.2 L202.3,222.5 L200.6,222.8 L199.0,223.2 L197.4,223.5 L195.9,223.9 L194.3,224.3 L192.8,224.8 L191.3,225.2 L189.8,225.7 L188.3,226.2 L186.8,226.7 L185.4,227.2 L184.0,227.8 L182.6,228.3 L181.2,228.9 L179.8,229.6 L178.5,230.2 L177.2,230.9 L175.8,231.6 L174.6,232.3 L173.3,233.0 L172.0,233.8 L170.8,234.6 L169.6,235.4 L168.4,236.2 L167.2,237.1 L166.1,238.0 L164.9,239.0 L163.8,239.9 L162.7,240.9 L161.6,241.9 L160.6,242.9 L159.6,244.0 L158.5,245.1 L157.5,246.2 L156.6,247.4 L155.6,248.6 L154.7,249.8 L153.7,251.0 L152.8,252.3 L151.9,253.6 L151.1,254.9 L150.2,256.3 L149.4,257.7 L148.6,259.1 L147.8,260.5 L147.0,262.0 L146.3,263.5 L145.6,265.0 L144.8,266.5 L144.2,268.1 L143.5,269.7 L142.8,271.4 L142.2,273.0 L141.6,274.7 L141.0,276.4 L140.4,278.1 L139.8,279.9 L139.3,281.6 L138.8,283.4 L138.3,285.3 L137.8,287.1 L137.3,289.0 L136.9,290.8 L136.4,292.7 L136.0,294.7 L135.6,296.6 L135.2,298.6 L134.9,300.5 L134.6,302.5 L134.2,304.5 L133.9,306.6 L133.6,308.6 L133.4,310.6 L133.1,312.7 L132.9,314.8 L132.7,316.8 L132.5,318.9 L132.3,321.0 L132.2,323.1 L132.0,325.3 L131.9,327.4 L131.8,329.5 L131.7,331.6 L131.7,333.8 L131.6,335.9 L131.6,338.1 L131.6,340.2 L131.6,342.3 L131.6,344.5 L131.7,346.6 L131.7,348.8 L131.8,350.9 L131.9,353.0 L132.0,355.1 L132.2,357.3 L132.3,359.4 L132.5,361.5 L132.7,363.6 L132.9,365.6 L133.1,367.7 L133.4,369.8 L133.6,371.8 L133.9,373.8 L134.2,375.9 L134.6,377.9 L134.9,379.9 L135.2,381.8 L135.6,383.8 L136.0,385.7 L136.4,387.7 L136.9,389.6 L137.3,391.4 L137.8,393.3 L138.3,395.1 L138.8,397.0 L139.3,398.8 L139.8,400.5 L140.4,402.3 L141.0,404.0 L141.6,405.7 L142.2,407.4 L142.8,409.0 L143.5,410.7 L144.2,412.3 L144.8,413.9 L145.6,415.4 L146.3,416.9 L147.0,418.4 L147.8,419.9 L148.6,421.3 L149.4,422.7 L150.2,424.1 L151.1,425.5 L151.9,426.8 L152.8,428.1 L153.7,429.4 L154.7,430.6 L155.6,431.8 L156.6,433.0 L157.5,434.2 L158.5,435.3 L159.6,436.4 L160.6,437.5 L161.6,438.5 L162.7,439.5 L163.8,440.5 L164.9,441.4 L166.1,442.4 L167.2,443.3 L168.4,444.2 L169.6,445.0 L170.8,445.8 L172.0,446.6 L173.3,447.4 L174.6,448.1 L175.8,448.8 L177.2,449.5 L178.5,450.2 L179.8,450.8 L181.2,451.5 L182.6,452.1 L184.0,452.6 L185.4,453.2 L186.8,453.7 L188.3,454.2 L189.8,454.7 L191.3,455.2 L192.8,455.6 L194.3,456.1 L195.9,456.5 L197.4,456.9 L199.0,457.2 L200.6,457.6 L202.3,457.9 L203.9,458.2 L205.6,458.5 L207.2,458.8 L208.9,459.1 L210.7,459.4 L212.4,459.6 L214.1,459.8 L215.9,460.1 L217.7,460.3 L219.5,460.5 L221.3,460.6 L223.1,460.8 L225.0,461.0 L226.8,461.1 L228.7,461.3 L230.6,461.4 L232.5,461.5 L234.4,461.6 L236.3,461.7 L238.3,461.8 L240.3,461.9 L242.2,462.0 L244.2,462.1 L246.2,462.2 L248.3,462.2 L250.3,462.3 L252.3,462.3 L254.4,462.4 L256.5,462.4 L258.5,462.5 L260.6,462.5 L262.7,462.5 L264.9,462.5 L267.0,462.6 L269.1,462.6 L271.3,462.6 L273.4,462.6 L275.6,462.6 L277.8,462.6 L280.0,462.6 L282.2,462.6 L284.4,462.6 L286.6,462.5 L288.8,462.5 L291.0,462.5 L293.2,462.5 L295.5,462.4 L297.7,462.4 L300.0,462.3 L302.2,462.3 L304.5,462.2 L306.7,462.2 L309.0,462.1 L311.3,462.0 L313.5,461.9 L315.8,461.8 L318.1,461.7 L320.4,461.6 L322.6,461.5 L324.9,461.4 L327.2,461.3 L329.5,461.1 L331.7,461.0 L334.0,460.8 L336.3,460.6 L338.6,460.5 L340.8,460.3 L343.1,460.1 L345.4,459.8 L347.6,459.6 L349.9,459.4 L352.1,459.1 L354.4,458.8 L356.6,458.5 L358.9,458.2 L361.1,457.9 L363.3,457.6 L365.5,457.2 L367.7,456.9 L369.9,456.5 L372.1,456.1 L374.3,455.6 L376.5,455.2 L378.6,454.7 L380.8,454.2 L382.9,453.7 L385.0,453.2 L387.1,452.6 L389.2,452.1 L391.3,451.5 L393.4,450.8 L395.4,450.2 L397.4,449.5 L399.5,448.8 L401.5,448.1 L403.5,447.4 L405.4,446.6 L407.4,445.8 L409.3,445.0 L411.2,444.2 L413.1,443.3 L415.0,442.4 L416.9,441.4 L418.7,440.5 L420.5,439.5 L422.3,438.5 L424.1,437.5 L425.8,436.4 L427.6,435.3 L429.3,434.2 L431.0,433.0 L432.6,431.8 L434.2,430.6 L435.9,429.4 L437.4,428.1 L439.0,426.8 L440.5,425.5 L442.0,424.1 L443.5,422.7 L445.0,421.3 L446.4,419.9 L447.8,418.4 L449.1,416.9 L450.5,415.4 L451.8,413.9 L453.1,412.3 L454.3,410.7 L455.5,409.0 L456.7,407.4 L457.9,405.7 L459.0,404.0 L460.1,402.3 L461.2,400.5 L462.2,398.8 L463.2,397.0 L464.2,395.1 L465.1,393.3 L466.0,391.4 L466.9,389.6 L467.7,387.7 L468.5,385.7 L469.3,383.8 L470.0,381.8 L470.7,379.9 L471.3,377.9 L472.0,375.9 L472.6,373.8 L473.1,371.8 L473.7,369.8 L474.1,367.7 L474.6,365.6 L475.0,363.6 L475.4,361.5 L475.7,359.4 L476.0,357.3 L476.3,355.1 L476.5,353.0 L476.7,350.9 L476.9,348.8 L477.0,346.6 L477.1,344.5 L477.2,342.3 L477.2,340.2 Z" fill="none" stroke="#1c5bb8" stroke-width="3.6"/>
<circle cx="366.8" cy="223.4" r="6" fill="#d9480f" stroke="#fff" stroke-width="1.5"/>
<circle cx="203.6" cy="222.2" r="6" fill="#d9480f" stroke="#fff" stroke-width="1.5"/>
<circle cx="157.3" cy="246.5" r="6" fill="#d9480f" stroke="#fff" stroke-width="1.5"/>
<circle cx="135.1" cy="380.8" r="6" fill="#d9480f" stroke="#fff" stroke-width="1.5"/>
<circle cx="203.6" cy="458.2" r="6" fill="#d9480f" stroke="#fff" stroke-width="1.5"/>
<circle cx="366.8" cy="457.0" r="6" fill="#d9480f" stroke="#fff" stroke-width="1.5"/>
<circle cx="467.0" cy="389.2" r="6" fill="#d9480f" stroke="#fff" stroke-width="1.5"/>
<text x="383.1" y="203.5" text-anchor="middle" font-size="14" font-weight="bold" fill="#d9480f" stroke="#ffffff" stroke-width="4" paint-order="stroke">e1</text>
<text x="186.0" y="203.2" text-anchor="middle" font-size="14" font-weight="bold" fill="#d9480f" stroke="#ffffff" stroke-width="4" paint-order="stroke">e2</text>
<text x="133.0" y="234.3" text-anchor="middle" font-size="14" font-weight="bold" fill="#d9480f" stroke="#ffffff" stroke-width="4" paint-order="stroke">e3</text>
<text x="106.3" y="393.3" text-anchor="middle" font-size="14" font-weight="bold" fill="#d9480f" stroke="#ffffff" stroke-width="4" paint-order="stroke">e4</text>
<text x="186.0" y="487.2" text-anchor="middle" font-size="14" font-weight="bold" fill="#d9480f" stroke="#ffffff" stroke-width="4" paint-order="stroke">e5</text>
<text x="383.1" y="486.9" text-anchor="middle" font-size="14" font-weight="bold" fill="#d9480f" stroke="#ffffff" stroke-width="4" paint-order="stroke">e6</text>
<text x="495.7" y="402.2" text-anchor="middle" font-size="14" font-weight="bold" fill="#d9480f" stroke="#ffffff" stroke-width="4" paint-order="stroke">e7</text>
<polygon points="460.2,277.9 470.9,287.1 462.2,291.9" fill="#1c5bb8"/>
<polygon points="247.2,218.2 260.3,212.9 260.5,222.8" fill="#1c5bb8"/>
<polygon points="132.1,322.9 128.5,309.3 138.3,310.2" fill="#1c5bb8"/>
<polygon points="231.8,461.5 218.2,465.4 219.0,455.5" fill="#1c5bb8"/>
<polygon points="432.5,432.1 424.1,443.4 418.7,435.1" fill="#1c5bb8"/>
<text x="290.0" y="613" text-anchor="middle" font-size="16" font-weight="bold" fill="#333">(a) One cycle, one bounded “word”</text>
<text x="50" y="637" font-size="13.5" fill="#444">Brown: a subdivision of the fixed square whose list of cell types</text>
<text x="50" y="655" font-size="13.5" fill="#444">depends only on the degree. Blue: a periodic orbit. Red: cuts where</text>
<text x="50" y="673" font-size="13.5" fill="#444">it crosses a boundary. A closed orbit crosses each transverse</text>
<text x="50" y="691" font-size="13.5" fill="#444">boundary arc at most once, so the number of links is bounded.</text>
<rect x="690" y="125" width="400" height="400" fill="#fbfbf8" stroke="#bbb" stroke-width="1"/>
<line x1="711.1" y1="153.1" x2="1061.9" y2="153.1" stroke="#2b8a3e" stroke-width="3"/>
<line x1="1061.9" y1="153.1" x2="1061.9" y2="503.9" stroke="#2b8a3e" stroke-width="3"/>
<text x="886.5" y="144.1" text-anchor="middle" font-size="13" fill="#2b8a3e" font-weight="bold">entry segment y = 1</text>
<text x="1071.9" y="328.5" font-size="13" fill="#2b8a3e" font-weight="bold" transform="rotate(90 1071.9 328.5)" text-anchor="middle">exit segment x = 1</text>
<line x1="711.1" y1="503.9" x2="1083.0" y2="503.9" stroke="#555" stroke-width="2"/>
<line x1="711.1" y1="503.9" x2="711.1" y2="132.0" stroke="#555" stroke-width="2"/>
<polygon points="910.0,503.9 898.0,508.4 898.0,499.4" fill="#555"/>
<polygon points="711.1,317.0 706.6,305.0 715.6,305.0" fill="#555"/>
<circle cx="711.1" cy="503.9" r="5.5" fill="#222"/>
<text x="719.1" y="523.9" font-size="13" fill="#222">saddle</text>
<path d="M725.1,153.1 L725.5,159.6 L725.9,166.0 L726.3,172.3 L726.7,178.5 L727.1,184.5 L727.5,190.5 L728.0,196.3 L728.4,202.0 L728.9,207.6 L729.4,213.1 L729.9,218.5 L730.4,223.9 L730.9,229.1 L731.5,234.2 L732.0,239.2 L732.6,244.1 L733.2,249.0 L733.8,253.7 L734.4,258.4 L735.1,262.9 L735.7,267.4 L736.4,271.8 L737.1,276.1 L737.8,280.4 L738.5,284.5 L739.2,288.6 L740.0,292.6 L740.8,296.5 L741.6,300.4 L742.4,304.2 L743.3,307.9 L744.2,311.5 L745.1,315.1 L746.0,318.6 L746.9,322.1 L747.9,325.5 L748.9,328.8 L749.9,332.0 L751.0,335.2 L752.1,338.4 L753.2,341.5 L754.4,344.5 L755.5,347.5 L756.7,350.4 L758.0,353.2 L759.3,356.0 L760.6,358.8 L761.9,361.5 L763.3,364.1 L764.7,366.7 L766.2,369.3 L767.7,371.8 L769.2,374.2 L770.8,376.7 L772.4,379.0 L774.1,381.3 L775.8,383.6 L777.6,385.9 L779.4,388.1 L781.2,390.2 L783.1,392.3 L785.1,394.4 L787.1,396.4 L789.2,398.4 L791.3,400.4 L793.5,402.3 L795.7,404.2 L798.0,406.1 L800.4,407.9 L802.8,409.7 L805.3,411.4 L807.9,413.2 L810.5,414.8 L813.2,416.5 L816.0,418.1 L818.8,419.7 L821.8,421.3 L824.8,422.8 L827.9,424.3 L831.1,425.8 L834.3,427.3 L837.7,428.7 L841.1,430.1 L844.6,431.5 L848.3,432.8 L852.0,434.1 L855.8,435.4 L859.8,436.7 L863.8,438.0 L868.0,439.2 L872.2,440.4 L876.6,441.6 L881.1,442.7 L885.7,443.9 L890.5,445.0 L895.4,446.1 L900.4,447.2 L905.5,448.2 L910.8,449.3 L916.2,450.3 L921.8,451.3 L927.6,452.3 L933.4,453.2 L939.5,454.2 L945.7,455.1 L952.1,456.0 L958.6,456.9 L965.4,457.8 L972.3,458.6 L979.4,459.5 L986.7,460.3 L994.2,461.1 L1001.9,461.9 L1009.8,462.7 L1017.9,463.5 L1026.2,464.2 L1034.8,464.9 L1043.6,465.7 L1052.6,466.4 L1061.9,467.1" fill="none" stroke="#9a9a9a" stroke-width="1.4"/>
<polygon points="784.4,393.8 775.3,389.1 780.7,384.2" fill="#7a7a7a"/>
<path d="M753.2,153.1 L753.9,157.4 L754.7,161.6 L755.4,165.9 L756.2,170.0 L757.0,174.1 L757.9,178.2 L758.7,182.2 L759.6,186.1 L760.4,190.0 L761.3,193.9 L762.2,197.7 L763.1,201.5 L764.0,205.2 L765.0,208.9 L765.9,212.5 L766.9,216.1 L767.9,219.6 L768.9,223.1 L770.0,226.6 L771.0,230.0 L772.1,233.3 L773.2,236.7 L774.3,239.9 L775.4,243.2 L776.5,246.4 L777.7,249.6 L778.9,252.7 L780.1,255.8 L781.3,258.8 L782.6,261.8 L783.9,264.8 L785.2,267.8 L786.5,270.7 L787.8,273.5 L789.2,276.4 L790.6,279.2 L792.0,281.9 L793.5,284.6 L794.9,287.3 L796.4,290.0 L797.9,292.6 L799.5,295.2 L801.1,297.8 L802.7,300.3 L804.3,302.8 L806.0,305.3 L807.7,307.7 L809.4,310.2 L811.1,312.5 L812.9,314.9 L814.7,317.2 L816.6,319.5 L818.5,321.8 L820.4,324.0 L822.3,326.2 L824.3,328.4 L826.3,330.6 L828.4,332.7 L830.5,334.8 L832.6,336.9 L834.8,338.9 L837.0,341.0 L839.2,343.0 L841.5,345.0 L843.8,346.9 L846.2,348.8 L848.6,350.7 L851.1,352.6 L853.6,354.5 L856.1,356.3 L858.7,358.1 L861.3,359.9 L864.0,361.7 L866.7,363.4 L869.5,365.2 L872.3,366.9 L875.2,368.6 L878.1,370.2 L881.1,371.9 L884.1,373.5 L887.2,375.1 L890.3,376.7 L893.5,378.3 L896.8,379.8 L900.1,381.3 L903.5,382.8 L906.9,384.3 L910.4,385.8 L914.0,387.2 L917.6,388.7 L921.2,390.1 L925.0,391.5 L928.8,392.9 L932.7,394.2 L936.6,395.6 L940.7,396.9 L944.8,398.2 L948.9,399.5 L953.2,400.8 L957.5,402.1 L961.9,403.3 L966.3,404.6 L970.9,405.8 L975.5,407.0 L980.2,408.2 L985.0,409.4 L989.9,410.5 L994.9,411.7 L1000.0,412.8 L1005.1,413.9 L1010.3,415.0 L1015.7,416.1 L1021.1,417.2 L1026.6,418.3 L1032.3,419.3 L1038.0,420.4 L1043.8,421.4 L1049.7,422.4 L1055.8,423.4 L1061.9,424.4" fill="none" stroke="#9a9a9a" stroke-width="1.4"/>
<polygon points="836.1,340.2 826.6,336.2 831.6,331.0" fill="#7a7a7a"/>
<path d="M798.8,153.1 L799.8,155.9 L800.8,158.7 L801.9,161.5 L802.9,164.2 L804.0,167.0 L805.1,169.7 L806.2,172.4 L807.3,175.1 L808.4,177.7 L809.5,180.3 L810.7,182.9 L811.8,185.5 L813.0,188.1 L814.2,190.6 L815.4,193.2 L816.6,195.7 L817.8,198.1 L819.0,200.6 L820.3,203.0 L821.6,205.5 L822.9,207.9 L824.2,210.3 L825.5,212.6 L826.8,215.0 L828.1,217.3 L829.5,219.6 L830.9,221.9 L832.3,224.2 L833.7,226.4 L835.1,228.7 L836.5,230.9 L838.0,233.1 L839.5,235.3 L841.0,237.4 L842.5,239.6 L844.0,241.7 L845.6,243.8 L847.1,245.9 L848.7,248.0 L850.3,250.0 L851.9,252.1 L853.6,254.1 L855.2,256.1 L856.9,258.1 L858.6,260.1 L860.3,262.1 L862.0,264.0 L863.8,265.9 L865.6,267.9 L867.4,269.8 L869.2,271.7 L871.0,273.5 L872.9,275.4 L874.7,277.2 L876.6,279.0 L878.6,280.9 L880.5,282.7 L882.5,284.4 L884.5,286.2 L886.5,288.0 L888.5,289.7 L890.6,291.4 L892.7,293.1 L894.8,294.8 L896.9,296.5 L899.1,298.2 L901.3,299.8 L903.5,301.5 L905.7,303.1 L908.0,304.7 L910.3,306.3 L912.6,307.9 L914.9,309.5 L917.3,311.1 L919.7,312.6 L922.1,314.2 L924.6,315.7 L927.0,317.2 L929.6,318.7 L932.1,320.2 L934.7,321.7 L937.3,323.2 L939.9,324.6 L942.5,326.1 L945.2,327.5 L948.0,328.9 L950.7,330.3 L953.5,331.7 L956.3,333.1 L959.2,334.5 L962.0,335.8 L965.0,337.2 L967.9,338.5 L970.9,339.9 L973.9,341.2 L977.0,342.5 L980.1,343.8 L983.2,345.1 L986.3,346.4 L989.5,347.6 L992.8,348.9 L996.1,350.2 L999.4,351.4 L1002.7,352.6 L1006.1,353.8 L1009.5,355.1 L1013.0,356.3 L1016.5,357.4 L1020.1,358.6 L1023.6,359.8 L1027.3,361.0 L1031.0,362.1 L1034.7,363.2 L1038.4,364.4 L1042.2,365.5 L1046.1,366.6 L1050.0,367.7 L1053.9,368.8 L1057.9,369.9 L1061.9,371.0" fill="none" stroke="#1c5bb8" stroke-width="3.4"/>
<polygon points="891.5,292.2 878.3,287.4 884.7,279.9" fill="#1c5bb8"/>
<path d="M868.9,153.1 L870.0,154.7 L871.1,156.3 L872.1,157.9 L873.2,159.5 L874.3,161.1 L875.4,162.7 L876.5,164.3 L877.6,165.9 L878.7,167.5 L879.8,169.0 L880.9,170.6 L882.1,172.1 L883.2,173.7 L884.4,175.2 L885.5,176.7 L886.7,178.3 L887.9,179.8 L889.0,181.3 L890.2,182.8 L891.4,184.3 L892.6,185.8 L893.8,187.2 L895.1,188.7 L896.3,190.2 L897.5,191.6 L898.8,193.1 L900.0,194.5 L901.3,196.0 L902.6,197.4 L903.8,198.8 L905.1,200.2 L906.4,201.7 L907.7,203.1 L909.0,204.5 L910.4,205.9 L911.7,207.2 L913.0,208.6 L914.4,210.0 L915.7,211.4 L917.1,212.7 L918.5,214.1 L919.9,215.4 L921.3,216.8 L922.7,218.1 L924.1,219.4 L925.5,220.7 L926.9,222.1 L928.4,223.4 L929.8,224.7 L931.3,226.0 L932.7,227.3 L934.2,228.5 L935.7,229.8 L937.2,231.1 L938.7,232.4 L940.2,233.6 L941.8,234.9 L943.3,236.1 L944.9,237.4 L946.4,238.6 L948.0,239.9 L949.6,241.1 L951.2,242.3 L952.8,243.5 L954.4,244.7 L956.0,245.9 L957.7,247.1 L959.3,248.3 L961.0,249.5 L962.6,250.7 L964.3,251.9 L966.0,253.0 L967.7,254.2 L969.4,255.4 L971.1,256.5 L972.9,257.7 L974.6,258.8 L976.4,260.0 L978.1,261.1 L979.9,262.2 L981.7,263.3 L983.5,264.5 L985.4,265.6 L987.2,266.7 L989.0,267.8 L990.9,268.9 L992.8,270.0 L994.6,271.1 L996.5,272.1 L998.4,273.2 L1000.4,274.3 L1002.3,275.4 L1004.2,276.4 L1006.2,277.5 L1008.2,278.5 L1010.1,279.6 L1012.1,280.6 L1014.1,281.7 L1016.2,282.7 L1018.2,283.7 L1020.3,284.7 L1022.3,285.8 L1024.4,286.8 L1026.5,287.8 L1028.6,288.8 L1030.7,289.8 L1032.9,290.8 L1035.0,291.8 L1037.2,292.8 L1039.3,293.7 L1041.5,294.7 L1043.7,295.7 L1046.0,296.7 L1048.2,297.6 L1050.4,298.6 L1052.7,299.5 L1055.0,300.5 L1057.3,301.4 L1059.6,302.4 L1061.9,303.3" fill="none" stroke="#9a9a9a" stroke-width="1.4"/>
<polygon points="950.2,241.6 940.4,238.5 944.9,232.8" fill="#7a7a7a"/>
<path d="M956.7,153.1 L957.4,153.8 L958.1,154.5 L958.9,155.3 L959.6,156.0 L960.3,156.7 L961.1,157.4 L961.8,158.1 L962.6,158.9 L963.3,159.6 L964.1,160.3 L964.8,161.0 L965.6,161.7 L966.3,162.4 L967.1,163.1 L967.9,163.9 L968.6,164.6 L969.4,165.3 L970.2,166.0 L970.9,166.7 L971.7,167.4 L972.5,168.1 L973.3,168.8 L974.0,169.5 L974.8,170.2 L975.6,170.9 L976.4,171.5 L977.2,172.2 L978.0,172.9 L978.8,173.6 L979.6,174.3 L980.4,175.0 L981.2,175.7 L982.0,176.4 L982.8,177.0 L983.6,177.7 L984.4,178.4 L985.2,179.1 L986.0,179.7 L986.9,180.4 L987.7,181.1 L988.5,181.8 L989.3,182.4 L990.2,183.1 L991.0,183.8 L991.8,184.4 L992.7,185.1 L993.5,185.8 L994.3,186.4 L995.2,187.1 L996.0,187.7 L996.9,188.4 L997.7,189.1 L998.6,189.7 L999.4,190.4 L1000.3,191.0 L1001.1,191.7 L1002.0,192.3 L1002.9,193.0 L1003.7,193.6 L1004.6,194.2 L1005.5,194.9 L1006.4,195.5 L1007.2,196.2 L1008.1,196.8 L1009.0,197.5 L1009.9,198.1 L1010.8,198.7 L1011.7,199.4 L1012.6,200.0 L1013.5,200.6 L1014.4,201.3 L1015.3,201.9 L1016.2,202.5 L1017.1,203.1 L1018.0,203.8 L1018.9,204.4 L1019.8,205.0 L1020.8,205.6 L1021.7,206.3 L1022.6,206.9 L1023.5,207.5 L1024.5,208.1 L1025.4,208.7 L1026.3,209.3 L1027.3,209.9 L1028.2,210.6 L1029.1,211.2 L1030.1,211.8 L1031.0,212.4 L1032.0,213.0 L1033.0,213.6 L1033.9,214.2 L1034.9,214.8 L1035.8,215.4 L1036.8,216.0 L1037.8,216.6 L1038.7,217.2 L1039.7,217.8 L1040.7,218.4 L1041.7,219.0 L1042.7,219.6 L1043.7,220.2 L1044.6,220.8 L1045.6,221.3 L1046.6,221.9 L1047.6,222.5 L1048.6,223.1 L1049.6,223.7 L1050.6,224.3 L1051.7,224.8 L1052.7,225.4 L1053.7,226.0 L1054.7,226.6 L1055.7,227.2 L1056.8,227.7 L1057.8,228.3 L1058.8,228.9 L1059.9,229.5 L1060.9,230.0 L1061.9,230.6" fill="none" stroke="#9a9a9a" stroke-width="1.4"/>
<polygon points="1008.5,197.1 998.6,194.3 1002.9,188.5" fill="#7a7a7a"/>
<circle cx="798.8" cy="153.1" r="6" fill="#d9480f" stroke="#fff" stroke-width="1.5"/>
<circle cx="1061.9" cy="371.0" r="6" fill="#d9480f" stroke="#fff" stroke-width="1.5"/>
<text x="804.8" y="177.1" font-size="14" font-weight="bold" fill="#d9480f" stroke="#ffffff" stroke-width="4" paint-order="stroke">in: (r, 1)</text>
<text x="1049.9" y="401.0" text-anchor="end" font-size="14" font-weight="bold" fill="#d9480f" stroke="#ffffff" stroke-width="4" paint-order="stroke">out: (1, r<tspan dy="-6" font-size="11">λ</tspan><tspan dy="6">)</tspan></text>
<text x="890.0" y="111" text-anchor="middle" font-size="16" fill="#333" font-weight="bold">(b) A passage near a saddle:  ẋ = x,  ẏ = −λy</text>
<text x="650" y="561" font-size="13.5" fill="#444">Time spent in the box:  L = log(1/r).   Contraction exponent:  W = λL.</text>
<text x="650" y="579" font-size="13.5" fill="#444">As r → 0 the “clock” L blows up; if λ → 0 as well, W can stay bounded</text>
<text x="650" y="597" font-size="13.5" fill="#444">or grow at a different rate. The paper’s passage models (additive,</text>
<text x="650" y="615" font-size="13.5" fill="#444">one-clock, two-clock) track such separated scales together with their</text>
<text x="650" y="633" font-size="13.5" fill="#444">exponentially small corrections. (Drawn with λ = 0.7.)</text>
</svg>
