<svg xmlns="http://www.w3.org/2000/svg" width="1000" height="680" viewBox="0 0 1000 680" font-family="DejaVu Sans, Helvetica, Arial, sans-serif">
<rect width="1000" height="680" fill="white"/>
<text x="500" y="34" text-anchor="middle" font-size="22" font-weight="bold" fill="#1d1d1f">Building a Besicovitch set from a Cantor set</text>
<text x="500" y="60" text-anchor="middle" font-size="15" fill="#444">Join every point of a Cantor set C on the bottom line to every point of C/2 on the top line</text>
<line x1="72" y1="360" x2="338" y2="360" stroke="#999" stroke-width="1"/>
<line x1="72" y1="110" x2="338" y2="110" stroke="#999" stroke-width="1"/>
<g fill="#2b6cb0" stroke="none">
<polygon points="80.00,360.00 142.50,360.00 111.25,110.00 80.00,110.00"/>
<polygon points="80.00,360.00 142.50,360.00 205.00,110.00 173.75,110.00"/>
<polygon points="267.50,360.00 330.00,360.00 111.25,110.00 80.00,110.00"/>
<polygon points="267.50,360.00 330.00,360.00 205.00,110.00 173.75,110.00"/>
</g>
<line x1="80.00" y1="366" x2="142.50" y2="366" stroke="#c05621" stroke-width="4"/>
<line x1="80.00" y1="104" x2="111.25" y2="104" stroke="#c05621" stroke-width="4"/>
<line x1="267.50" y1="366" x2="330.00" y2="366" stroke="#c05621" stroke-width="4"/>
<line x1="173.75" y1="104" x2="205.00" y2="104" stroke="#c05621" stroke-width="4"/>
<text x="205.0" y="396" text-anchor="middle" font-size="16" font-weight="bold" fill="#1d1d1f">Level 1: 4 pieces</text>
<text x="205.0" y="418" text-anchor="middle" font-size="15" fill="#1d1d1f">area = 0.575</text>
<line x1="382" y1="360" x2="648" y2="360" stroke="#999" stroke-width="1"/>
<line x1="382" y1="110" x2="648" y2="110" stroke="#999" stroke-width="1"/>
<g fill="#2b6cb0" stroke="none">
<polygon points="390.00,360.00 405.62,360.00 397.81,110.00 390.00,110.00"/>
<polygon points="390.00,360.00 405.62,360.00 421.25,110.00 413.44,110.00"/>
<polygon points="390.00,360.00 405.62,360.00 491.56,110.00 483.75,110.00"/>
<polygon points="390.00,360.00 405.62,360.00 515.00,110.00 507.19,110.00"/>
<polygon points="436.88,360.00 452.50,360.00 397.81,110.00 390.00,110.00"/>
<polygon points="436.88,360.00 452.50,360.00 421.25,110.00 413.44,110.00"/>
<polygon points="436.88,360.00 452.50,360.00 491.56,110.00 483.75,110.00"/>
<polygon points="436.88,360.00 452.50,360.00 515.00,110.00 507.19,110.00"/>
<polygon points="577.50,360.00 593.12,360.00 397.81,110.00 390.00,110.00"/>
<polygon points="577.50,360.00 593.12,360.00 421.25,110.00 413.44,110.00"/>
<polygon points="577.50,360.00 593.12,360.00 491.56,110.00 483.75,110.00"/>
<polygon points="577.50,360.00 593.12,360.00 515.00,110.00 507.19,110.00"/>
<polygon points="624.38,360.00 640.00,360.00 397.81,110.00 390.00,110.00"/>
<polygon points="624.38,360.00 640.00,360.00 421.25,110.00 413.44,110.00"/>
<polygon points="624.38,360.00 640.00,360.00 491.56,110.00 483.75,110.00"/>
<polygon points="624.38,360.00 640.00,360.00 515.00,110.00 507.19,110.00"/>
</g>
<line x1="390.00" y1="366" x2="405.62" y2="366" stroke="#c05621" stroke-width="4"/>
<line x1="390.00" y1="104" x2="397.81" y2="104" stroke="#c05621" stroke-width="4"/>
<line x1="436.88" y1="366" x2="452.50" y2="366" stroke="#c05621" stroke-width="4"/>
<line x1="413.44" y1="104" x2="421.25" y2="104" stroke="#c05621" stroke-width="4"/>
<line x1="577.50" y1="366" x2="593.12" y2="366" stroke="#c05621" stroke-width="4"/>
<line x1="483.75" y1="104" x2="491.56" y2="104" stroke="#c05621" stroke-width="4"/>
<line x1="624.38" y1="366" x2="640.00" y2="366" stroke="#c05621" stroke-width="4"/>
<line x1="507.19" y1="104" x2="515.00" y2="104" stroke="#c05621" stroke-width="4"/>
<text x="515.0" y="396" text-anchor="middle" font-size="16" font-weight="bold" fill="#1d1d1f">Level 2: 16 pieces</text>
<text x="515.0" y="418" text-anchor="middle" font-size="15" fill="#1d1d1f">area = 0.496</text>
<line x1="692" y1="360" x2="958" y2="360" stroke="#999" stroke-width="1"/>
<line x1="692" y1="110" x2="958" y2="110" stroke="#999" stroke-width="1"/>
<g fill="#2b6cb0" stroke="none">
<polygon points="700.00,360.00 700.98,360.00 700.49,110.00 700.00,110.00"/>
<polygon points="700.00,360.00 700.98,360.00 701.95,110.00 701.46,110.00"/>
<polygon points="700.00,360.00 700.98,360.00 706.35,110.00 705.86,110.00"/>
<polygon points="700.00,360.00 700.98,360.00 707.81,110.00 707.32,110.00"/>
<polygon points="700.00,360.00 700.98,360.00 723.93,110.00 723.44,110.00"/>
<polygon points="700.00,360.00 700.98,360.00 725.39,110.00 724.90,110.00"/>
<polygon points="700.00,360.00 700.98,360.00 729.79,110.00 729.30,110.00"/>
<polygon points="700.00,360.00 700.98,360.00 731.25,110.00 730.76,110.00"/>
<polygon points="700.00,360.00 700.98,360.00 794.24,110.00 793.75,110.00"/>
<polygon points="700.00,360.00 700.98,360.00 795.70,110.00 795.21,110.00"/>
<polygon points="700.00,360.00 700.98,360.00 800.10,110.00 799.61,110.00"/>
<polygon points="700.00,360.00 700.98,360.00 801.56,110.00 801.07,110.00"/>
<polygon points="700.00,360.00 700.98,360.00 817.68,110.00 817.19,110.00"/>
<polygon points="700.00,360.00 700.98,360.00 819.14,110.00 818.65,110.00"/>
<polygon points="700.00,360.00 700.98,360.00 823.54,110.00 823.05,110.00"/>
<polygon points="700.00,360.00 700.98,360.00 825.00,110.00 824.51,110.00"/>
<polygon points="702.93,360.00 703.91,360.00 700.49,110.00 700.00,110.00"/>
<polygon points="702.93,360.00 703.91,360.00 701.95,110.00 701.46,110.00"/>
<polygon points="702.93,360.00 703.91,360.00 706.35,110.00 705.86,110.00"/>
<polygon points="702.93,360.00 703.91,360.00 707.81,110.00 707.32,110.00"/>
<polygon points="702.93,360.00 703.91,360.00 723.93,110.00 723.44,110.00"/>
<polygon points="702.93,360.00 703.91,360.00 725.39,110.00 724.90,110.00"/>
<polygon points="702.93,360.00 703.91,360.00 729.79,110.00 729.30,110.00"/>
<polygon points="702.93,360.00 703.91,360.00 731.25,110.00 730.76,110.00"/>
<polygon points="702.93,360.00 703.91,360.00 794.24,110.00 793.75,110.00"/>
<polygon points="702.93,360.00 703.91,360.00 795.70,110.00 795.21,110.00"/>
<polygon points="702.93,360.00 703.91,360.00 800.10,110.00 799.61,110.00"/>
<polygon points="702.93,360.00 703.91,360.00 801.56,110.00 801.07,110.00"/>
<polygon points="702.93,360.00 703.91,360.00 817.68,110.00 817.19,110.00"/>
<polygon points="702.93,360.00 703.91,360.00 819.14,110.00 818.65,110.00"/>
<polygon points="702.93,360.00 703.91,360.00 823.54,110.00 823.05,110.00"/>
<polygon points="702.93,360.00 703.91,360.00 825.00,110.00 824.51,110.00"/>
<polygon points="711.72,360.00 712.70,360.00 700.49,110.00 700.00,110.00"/>
<polygon points="711.72,360.00 712.70,360.00 701.95,110.00 701.46,110.00"/>
<polygon points="711.72,360.00 712.70,360.00 706.35,110.00 705.86,110.00"/>
<polygon points="711.72,360.00 712.70,360.00 707.81,110.00 707.32,110.00"/>
<polygon points="711.72,360.00 712.70,360.00 723.93,110.00 723.44,110.00"/>
<polygon points="711.72,360.00 712.70,360.00 725.39,110.00 724.90,110.00"/>
<polygon points="711.72,360.00 712.70,360.00 729.79,110.00 729.30,110.00"/>
<polygon points="711.72,360.00 712.70,360.00 731.25,110.00 730.76,110.00"/>
<polygon points="711.72,360.00 712.70,360.00 794.24,110.00 793.75,110.00"/>
<polygon points="711.72,360.00 712.70,360.00 795.70,110.00 795.21,110.00"/>
<polygon points="711.72,360.00 712.70,360.00 800.10,110.00 799.61,110.00"/>
<polygon points="711.72,360.00 712.70,360.00 801.56,110.00 801.07,110.00"/>
<polygon points="711.72,360.00 712.70,360.00 817.68,110.00 817.19,110.00"/>
<polygon points="711.72,360.00 712.70,360.00 819.14,110.00 818.65,110.00"/>
<polygon points="711.72,360.00 712.70,360.00 823.54,110.00 823.05,110.00"/>
<polygon points="711.72,360.00 712.70,360.00 825.00,110.00 824.51,110.00"/>
<polygon points="714.65,360.00 715.62,360.00 700.49,110.00 700.00,110.00"/>
<polygon points="714.65,360.00 715.62,360.00 701.95,110.00 701.46,110.00"/>
<polygon points="714.65,360.00 715.62,360.00 706.35,110.00 705.86,110.00"/>
<polygon points="714.65,360.00 715.62,360.00 707.81,110.00 707.32,110.00"/>
<polygon points="714.65,360.00 715.62,360.00 723.93,110.00 723.44,110.00"/>
<polygon points="714.65,360.00 715.62,360.00 725.39,110.00 724.90,110.00"/>
<polygon points="714.65,360.00 715.62,360.00 729.79,110.00 729.30,110.00"/>
<polygon points="714.65,360.00 715.62,360.00 731.25,110.00 730.76,110.00"/>
<polygon points="714.65,360.00 715.62,360.00 794.24,110.00 793.75,110.00"/>
<polygon points="714.65,360.00 715.62,360.00 795.70,110.00 795.21,110.00"/>
<polygon points="714.65,360.00 715.62,360.00 800.10,110.00 799.61,110.00"/>
<polygon points="714.65,360.00 715.62,360.00 801.56,110.00 801.07,110.00"/>
<polygon points="714.65,360.00 715.62,360.00 817.68,110.00 817.19,110.00"/>
<polygon points="714.65,360.00 715.62,360.00 819.14,110.00 818.65,110.00"/>
<polygon points="714.65,360.00 715.62,360.00 823.54,110.00 823.05,110.00"/>
<polygon points="714.65,360.00 715.62,360.00 825.00,110.00 824.51,110.00"/>
<polygon points="746.88,360.00 747.85,360.00 700.49,110.00 700.00,110.00"/>
<polygon points="746.88,360.00 747.85,360.00 701.95,110.00 701.46,110.00"/>
<polygon points="746.88,360.00 747.85,360.00 706.35,110.00 705.86,110.00"/>
<polygon points="746.88,360.00 747.85,360.00 707.81,110.00 707.32,110.00"/>
<polygon points="746.88,360.00 747.85,360.00 723.93,110.00 723.44,110.00"/>
<polygon points="746.88,360.00 747.85,360.00 725.39,110.00 724.90,110.00"/>
<polygon points="746.88,360.00 747.85,360.00 729.79,110.00 729.30,110.00"/>
<polygon points="746.88,360.00 747.85,360.00 731.25,110.00 730.76,110.00"/>
<polygon points="746.88,360.00 747.85,360.00 794.24,110.00 793.75,110.00"/>
<polygon points="746.88,360.00 747.85,360.00 795.70,110.00 795.21,110.00"/>
<polygon points="746.88,360.00 747.85,360.00 800.10,110.00 799.61,110.00"/>
<polygon points="746.88,360.00 747.85,360.00 801.56,110.00 801.07,110.00"/>
<polygon points="746.88,360.00 747.85,360.00 817.68,110.00 817.19,110.00"/>
<polygon points="746.88,360.00 747.85,360.00 819.14,110.00 818.65,110.00"/>
<polygon points="746.88,360.00 747.85,360.00 823.54,110.00 823.05,110.00"/>
<polygon points="746.88,360.00 747.85,360.00 825.00,110.00 824.51,110.00"/>
<polygon points="749.80,360.00 750.78,360.00 700.49,110.00 700.00,110.00"/>
<polygon points="749.80,360.00 750.78,360.00 701.95,110.00 701.46,110.00"/>
<polygon points="749.80,360.00 750.78,360.00 706.35,110.00 705.86,110.00"/>
<polygon points="749.80,360.00 750.78,360.00 707.81,110.00 707.32,110.00"/>
<polygon points="749.80,360.00 750.78,360.00 723.93,110.00 723.44,110.00"/>
<polygon points="749.80,360.00 750.78,360.00 725.39,110.00 724.90,110.00"/>
<polygon points="749.80,360.00 750.78,360.00 729.79,110.00 729.30,110.00"/>
<polygon points="749.80,360.00 750.78,360.00 731.25,110.00 730.76,110.00"/>
<polygon points="749.80,360.00 750.78,360.00 794.24,110.00 793.75,110.00"/>
<polygon points="749.80,360.00 750.78,360.00 795.70,110.00 795.21,110.00"/>
<polygon points="749.80,360.00 750.78,360.00 800.10,110.00 799.61,110.00"/>
<polygon points="749.80,360.00 750.78,360.00 801.56,110.00 801.07,110.00"/>
<polygon points="749.80,360.00 750.78,360.00 817.68,110.00 817.19,110.00"/>
<polygon points="749.80,360.00 750.78,360.00 819.14,110.00 818.65,110.00"/>
<polygon points="749.80,360.00 750.78,360.00 823.54,110.00 823.05,110.00"/>
<polygon points="749.80,360.00 750.78,360.00 825.00,110.00 824.51,110.00"/>
<polygon points="758.59,360.00 759.57,360.00 700.49,110.00 700.00,110.00"/>
<polygon points="758.59,360.00 759.57,360.00 701.95,110.00 701.46,110.00"/>
<polygon points="758.59,360.00 759.57,360.00 706.35,110.00 705.86,110.00"/>
<polygon points="758.59,360.00 759.57,360.00 707.81,110.00 707.32,110.00"/>
<polygon points="758.59,360.00 759.57,360.00 723.93,110.00 723.44,110.00"/>
<polygon points="758.59,360.00 759.57,360.00 725.39,110.00 724.90,110.00"/>
<polygon points="758.59,360.00 759.57,360.00 729.79,110.00 729.30,110.00"/>
<polygon points="758.59,360.00 759.57,360.00 731.25,110.00 730.76,110.00"/>
<polygon points="758.59,360.00 759.57,360.00 794.24,110.00 793.75,110.00"/>
<polygon points="758.59,360.00 759.57,360.00 795.70,110.00 795.21,110.00"/>
<polygon points="758.59,360.00 759.57,360.00 800.10,110.00 799.61,110.00"/>
<polygon points="758.59,360.00 759.57,360.00 801.56,110.00 801.07,110.00"/>
<polygon points="758.59,360.00 759.57,360.00 817.68,110.00 817.19,110.00"/>
<polygon points="758.59,360.00 759.57,360.00 819.14,110.00 818.65,110.00"/>
<polygon points="758.59,360.00 759.57,360.00 823.54,110.00 823.05,110.00"/>
<polygon points="758.59,360.00 759.57,360.00 825.00,110.00 824.51,110.00"/>
<polygon points="761.52,360.00 762.50,360.00 700.49,110.00 700.00,110.00"/>
<polygon points="761.52,360.00 762.50,360.00 701.95,110.00 701.46,110.00"/>
<polygon points="761.52,360.00 762.50,360.00 706.35,110.00 705.86,110.00"/>
<polygon points="761.52,360.00 762.50,360.00 707.81,110.00 707.32,110.00"/>
<polygon points="761.52,360.00 762.50,360.00 723.93,110.00 723.44,110.00"/>
<polygon points="761.52,360.00 762.50,360.00 725.39,110.00 724.90,110.00"/>
<polygon points="761.52,360.00 762.50,360.00 729.79,110.00 729.30,110.00"/>
<polygon points="761.52,360.00 762.50,360.00 731.25,110.00 730.76,110.00"/>
<polygon points="761.52,360.00 762.50,360.00 794.24,110.00 793.75,110.00"/>
<polygon points="761.52,360.00 762.50,360.00 795.70,110.00 795.21,110.00"/>
<polygon points="761.52,360.00 762.50,360.00 800.10,110.00 799.61,110.00"/>
<polygon points="761.52,360.00 762.50,360.00 801.56,110.00 801.07,110.00"/>
<polygon points="761.52,360.00 762.50,360.00 817.68,110.00 817.19,110.00"/>
<polygon points="761.52,360.00 762.50,360.00 819.14,110.00 818.65,110.00"/>
<polygon points="761.52,360.00 762.50,360.00 823.54,110.00 823.05,110.00"/>
<polygon points="761.52,360.00 762.50,360.00 825.00,110.00 824.51,110.00"/>
<polygon points="887.50,360.00 888.48,360.00 700.49,110.00 700.00,110.00"/>
<polygon points="887.50,360.00 888.48,360.00 701.95,110.00 701.46,110.00"/>
<polygon points="887.50,360.00 888.48,360.00 706.35,110.00 705.86,110.00"/>
<polygon points="887.50,360.00 888.48,360.00 707.81,110.00 707.32,110.00"/>
<polygon points="887.50,360.00 888.48,360.00 723.93,110.00 723.44,110.00"/>
<polygon points="887.50,360.00 888.48,360.00 725.39,110.00 724.90,110.00"/>
<polygon points="887.50,360.00 888.48,360.00 729.79,110.00 729.30,110.00"/>
<polygon points="887.50,360.00 888.48,360.00 731.25,110.00 730.76,110.00"/>
<polygon points="887.50,360.00 888.48,360.00 794.24,110.00 793.75,110.00"/>
<polygon points="887.50,360.00 888.48,360.00 795.70,110.00 795.21,110.00"/>
<polygon points="887.50,360.00 888.48,360.00 800.10,110.00 799.61,110.00"/>
<polygon points="887.50,360.00 888.48,360.00 801.56,110.00 801.07,110.00"/>
<polygon points="887.50,360.00 888.48,360.00 817.68,110.00 817.19,110.00"/>
<polygon points="887.50,360.00 888.48,360.00 819.14,110.00 818.65,110.00"/>
<polygon points="887.50,360.00 888.48,360.00 823.54,110.00 823.05,110.00"/>
<polygon points="887.50,360.00 888.48,360.00 825.00,110.00 824.51,110.00"/>
<polygon points="890.43,360.00 891.41,360.00 700.49,110.00 700.00,110.00"/>
<polygon points="890.43,360.00 891.41,360.00 701.95,110.00 701.46,110.00"/>
<polygon points="890.43,360.00 891.41,360.00 706.35,110.00 705.86,110.00"/>
<polygon points="890.43,360.00 891.41,360.00 707.81,110.00 707.32,110.00"/>
<polygon points="890.43,360.00 891.41,360.00 723.93,110.00 723.44,110.00"/>
<polygon points="890.43,360.00 891.41,360.00 725.39,110.00 724.90,110.00"/>
<polygon points="890.43,360.00 891.41,360.00 729.79,110.00 729.30,110.00"/>
<polygon points="890.43,360.00 891.41,360.00 731.25,110.00 730.76,110.00"/>
<polygon points="890.43,360.00 891.41,360.00 794.24,110.00 793.75,110.00"/>
<polygon points="890.43,360.00 891.41,360.00 795.70,110.00 795.21,110.00"/>
<polygon points="890.43,360.00 891.41,360.00 800.10,110.00 799.61,110.00"/>
<polygon points="890.43,360.00 891.41,360.00 801.56,110.00 801.07,110.00"/>
<polygon points="890.43,360.00 891.41,360.00 817.68,110.00 817.19,110.00"/>
<polygon points="890.43,360.00 891.41,360.00 819.14,110.00 818.65,110.00"/>
<polygon points="890.43,360.00 891.41,360.00 823.54,110.00 823.05,110.00"/>
<polygon points="890.43,360.00 891.41,360.00 825.00,110.00 824.51,110.00"/>
<polygon points="899.22,360.00 900.20,360.00 700.49,110.00 700.00,110.00"/>
<polygon points="899.22,360.00 900.20,360.00 701.95,110.00 701.46,110.00"/>
<polygon points="899.22,360.00 900.20,360.00 706.35,110.00 705.86,110.00"/>
<polygon points="899.22,360.00 900.20,360.00 707.81,110.00 707.32,110.00"/>
<polygon points="899.22,360.00 900.20,360.00 723.93,110.00 723.44,110.00"/>
<polygon points="899.22,360.00 900.20,360.00 725.39,110.00 724.90,110.00"/>
<polygon points="899.22,360.00 900.20,360.00 729.79,110.00 729.30,110.00"/>
<polygon points="899.22,360.00 900.20,360.00 731.25,110.00 730.76,110.00"/>
<polygon points="899.22,360.00 900.20,360.00 794.24,110.00 793.75,110.00"/>
<polygon points="899.22,360.00 900.20,360.00 795.70,110.00 795.21,110.00"/>
<polygon points="899.22,360.00 900.20,360.00 800.10,110.00 799.61,110.00"/>
<polygon points="899.22,360.00 900.20,360.00 801.56,110.00 801.07,110.00"/>
<polygon points="899.22,360.00 900.20,360.00 817.68,110.00 817.19,110.00"/>
<polygon points="899.22,360.00 900.20,360.00 819.14,110.00 818.65,110.00"/>
<polygon points="899.22,360.00 900.20,360.00 823.54,110.00 823.05,110.00"/>
<polygon points="899.22,360.00 900.20,360.00 825.00,110.00 824.51,110.00"/>
<polygon points="902.15,360.00 903.12,360.00 700.49,110.00 700.00,110.00"/>
<polygon points="902.15,360.00 903.12,360.00 701.95,110.00 701.46,110.00"/>
<polygon points="902.15,360.00 903.12,360.00 706.35,110.00 705.86,110.00"/>
<polygon points="902.15,360.00 903.12,360.00 707.81,110.00 707.32,110.00"/>
<polygon points="902.15,360.00 903.12,360.00 723.93,110.00 723.44,110.00"/>
<polygon points="902.15,360.00 903.12,360.00 725.39,110.00 724.90,110.00"/>
<polygon points="902.15,360.00 903.12,360.00 729.79,110.00 729.30,110.00"/>
<polygon points="902.15,360.00 903.12,360.00 731.25,110.00 730.76,110.00"/>
<polygon points="902.15,360.00 903.12,360.00 794.24,110.00 793.75,110.00"/>
<polygon points="902.15,360.00 903.12,360.00 795.70,110.00 795.21,110.00"/>
<polygon points="902.15,360.00 903.12,360.00 800.10,110.00 799.61,110.00"/>
<polygon points="902.15,360.00 903.12,360.00 801.56,110.00 801.07,110.00"/>
<polygon points="902.15,360.00 903.12,360.00 817.68,110.00 817.19,110.00"/>
<polygon points="902.15,360.00 903.12,360.00 819.14,110.00 818.65,110.00"/>
<polygon points="902.15,360.00 903.12,360.00 823.54,110.00 823.05,110.00"/>
<polygon points="902.15,360.00 903.12,360.00 825.00,110.00 824.51,110.00"/>
<polygon points="934.38,360.00 935.35,360.00 700.49,110.00 700.00,110.00"/>
<polygon points="934.38,360.00 935.35,360.00 701.95,110.00 701.46,110.00"/>
<polygon points="934.38,360.00 935.35,360.00 706.35,110.00 705.86,110.00"/>
<polygon points="934.38,360.00 935.35,360.00 707.81,110.00 707.32,110.00"/>
<polygon points="934.38,360.00 935.35,360.00 723.93,110.00 723.44,110.00"/>
<polygon points="934.38,360.00 935.35,360.00 725.39,110.00 724.90,110.00"/>
<polygon points="934.38,360.00 935.35,360.00 729.79,110.00 729.30,110.00"/>
<polygon points="934.38,360.00 935.35,360.00 731.25,110.00 730.76,110.00"/>
<polygon points="934.38,360.00 935.35,360.00 794.24,110.00 793.75,110.00"/>
<polygon points="934.38,360.00 935.35,360.00 795.70,110.00 795.21,110.00"/>
<polygon points="934.38,360.00 935.35,360.00 800.10,110.00 799.61,110.00"/>
<polygon points="934.38,360.00 935.35,360.00 801.56,110.00 801.07,110.00"/>
<polygon points="934.38,360.00 935.35,360.00 817.68,110.00 817.19,110.00"/>
<polygon points="934.38,360.00 935.35,360.00 819.14,110.00 818.65,110.00"/>
<polygon points="934.38,360.00 935.35,360.00 823.54,110.00 823.05,110.00"/>
<polygon points="934.38,360.00 935.35,360.00 825.00,110.00 824.51,110.00"/>
<polygon points="937.30,360.00 938.28,360.00 700.49,110.00 700.00,110.00"/>
<polygon points="937.30,360.00 938.28,360.00 701.95,110.00 701.46,110.00"/>
<polygon points="937.30,360.00 938.28,360.00 706.35,110.00 705.86,110.00"/>
<polygon points="937.30,360.00 938.28,360.00 707.81,110.00 707.32,110.00"/>
<polygon points="937.30,360.00 938.28,360.00 723.93,110.00 723.44,110.00"/>
<polygon points="937.30,360.00 938.28,360.00 725.39,110.00 724.90,110.00"/>
<polygon points="937.30,360.00 938.28,360.00 729.79,110.00 729.30,110.00"/>
<polygon points="937.30,360.00 938.28,360.00 731.25,110.00 730.76,110.00"/>
<polygon points="937.30,360.00 938.28,360.00 794.24,110.00 793.75,110.00"/>
<polygon points="937.30,360.00 938.28,360.00 795.70,110.00 795.21,110.00"/>
<polygon points="937.30,360.00 938.28,360.00 800.10,110.00 799.61,110.00"/>
<polygon points="937.30,360.00 938.28,360.00 801.56,110.00 801.07,110.00"/>
<polygon points="937.30,360.00 938.28,360.00 817.68,110.00 817.19,110.00"/>
<polygon points="937.30,360.00 938.28,360.00 819.14,110.00 818.65,110.00"/>
<polygon points="937.30,360.00 938.28,360.00 823.54,110.00 823.05,110.00"/>
<polygon points="937.30,360.00 938.28,360.00 825.00,110.00 824.51,110.00"/>
<polygon points="946.09,360.00 947.07,360.00 700.49,110.00 700.00,110.00"/>
<polygon points="946.09,360.00 947.07,360.00 701.95,110.00 701.46,110.00"/>
<polygon points="946.09,360.00 947.07,360.00 706.35,110.00 705.86,110.00"/>
<polygon points="946.09,360.00 947.07,360.00 707.81,110.00 707.32,110.00"/>
<polygon points="946.09,360.00 947.07,360.00 723.93,110.00 723.44,110.00"/>
<polygon points="946.09,360.00 947.07,360.00 725.39,110.00 724.90,110.00"/>
<polygon points="946.09,360.00 947.07,360.00 729.79,110.00 729.30,110.00"/>
<polygon points="946.09,360.00 947.07,360.00 731.25,110.00 730.76,110.00"/>
<polygon points="946.09,360.00 947.07,360.00 794.24,110.00 793.75,110.00"/>
<polygon points="946.09,360.00 947.07,360.00 795.70,110.00 795.21,110.00"/>
<polygon points="946.09,360.00 947.07,360.00 800.10,110.00 799.61,110.00"/>
<polygon points="946.09,360.00 947.07,360.00 801.56,110.00 801.07,110.00"/>
<polygon points="946.09,360.00 947.07,360.00 817.68,110.00 817.19,110.00"/>
<polygon points="946.09,360.00 947.07,360.00 819.14,110.00 818.65,110.00"/>
<polygon points="946.09,360.00 947.07,360.00 823.54,110.00 823.05,110.00"/>
<polygon points="946.09,360.00 947.07,360.00 825.00,110.00 824.51,110.00"/>
<polygon points="949.02,360.00 950.00,360.00 700.49,110.00 700.00,110.00"/>
<polygon points="949.02,360.00 950.00,360.00 701.95,110.00 701.46,110.00"/>
<polygon points="949.02,360.00 950.00,360.00 706.35,110.00 705.86,110.00"/>
<polygon points="949.02,360.00 950.00,360.00 707.81,110.00 707.32,110.00"/>
<polygon points="949.02,360.00 950.00,360.00 723.93,110.00 723.44,110.00"/>
<polygon points="949.02,360.00 950.00,360.00 725.39,110.00 724.90,110.00"/>
<polygon points="949.02,360.00 950.00,360.00 729.79,110.00 729.30,110.00"/>
<polygon points="949.02,360.00 950.00,360.00 731.25,110.00 730.76,110.00"/>
<polygon points="949.02,360.00 950.00,360.00 794.24,110.00 793.75,110.00"/>
<polygon points="949.02,360.00 950.00,360.00 795.70,110.00 795.21,110.00"/>
<polygon points="949.02,360.00 950.00,360.00 800.10,110.00 799.61,110.00"/>
<polygon points="949.02,360.00 950.00,360.00 801.56,110.00 801.07,110.00"/>
<polygon points="949.02,360.00 950.00,360.00 817.68,110.00 817.19,110.00"/>
<polygon points="949.02,360.00 950.00,360.00 819.14,110.00 818.65,110.00"/>
<polygon points="949.02,360.00 950.00,360.00 823.54,110.00 823.05,110.00"/>
<polygon points="949.02,360.00 950.00,360.00 825.00,110.00 824.51,110.00"/>
</g>
<line x1="700.00" y1="366" x2="700.98" y2="366" stroke="#c05621" stroke-width="4"/>
<line x1="700.00" y1="104" x2="700.49" y2="104" stroke="#c05621" stroke-width="4"/>
<line x1="702.93" y1="366" x2="703.91" y2="366" stroke="#c05621" stroke-width="4"/>
<line x1="701.46" y1="104" x2="701.95" y2="104" stroke="#c05621" stroke-width="4"/>
<line x1="711.72" y1="366" x2="712.70" y2="366" stroke="#c05621" stroke-width="4"/>
<line x1="705.86" y1="104" x2="706.35" y2="104" stroke="#c05621" stroke-width="4"/>
<line x1="714.65" y1="366" x2="715.62" y2="366" stroke="#c05621" stroke-width="4"/>
<line x1="707.32" y1="104" x2="707.81" y2="104" stroke="#c05621" stroke-width="4"/>
<line x1="746.88" y1="366" x2="747.85" y2="366" stroke="#c05621" stroke-width="4"/>
<line x1="723.44" y1="104" x2="723.93" y2="104" stroke="#c05621" stroke-width="4"/>
<line x1="749.80" y1="366" x2="750.78" y2="366" stroke="#c05621" stroke-width="4"/>
<line x1="724.90" y1="104" x2="725.39" y2="104" stroke="#c05621" stroke-width="4"/>
<line x1="758.59" y1="366" x2="759.57" y2="366" stroke="#c05621" stroke-width="4"/>
<line x1="729.30" y1="104" x2="729.79" y2="104" stroke="#c05621" stroke-width="4"/>
<line x1="761.52" y1="366" x2="762.50" y2="366" stroke="#c05621" stroke-width="4"/>
<line x1="730.76" y1="104" x2="731.25" y2="104" stroke="#c05621" stroke-width="4"/>
<line x1="887.50" y1="366" x2="888.48" y2="366" stroke="#c05621" stroke-width="4"/>
<line x1="793.75" y1="104" x2="794.24" y2="104" stroke="#c05621" stroke-width="4"/>
<line x1="890.43" y1="366" x2="891.41" y2="366" stroke="#c05621" stroke-width="4"/>
<line x1="795.21" y1="104" x2="795.70" y2="104" stroke="#c05621" stroke-width="4"/>
<line x1="899.22" y1="366" x2="900.20" y2="366" stroke="#c05621" stroke-width="4"/>
<line x1="799.61" y1="104" x2="800.10" y2="104" stroke="#c05621" stroke-width="4"/>
<line x1="902.15" y1="366" x2="903.12" y2="366" stroke="#c05621" stroke-width="4"/>
<line x1="801.07" y1="104" x2="801.56" y2="104" stroke="#c05621" stroke-width="4"/>
<line x1="934.38" y1="366" x2="935.35" y2="366" stroke="#c05621" stroke-width="4"/>
<line x1="817.19" y1="104" x2="817.68" y2="104" stroke="#c05621" stroke-width="4"/>
<line x1="937.30" y1="366" x2="938.28" y2="366" stroke="#c05621" stroke-width="4"/>
<line x1="818.65" y1="104" x2="819.14" y2="104" stroke="#c05621" stroke-width="4"/>
<line x1="946.09" y1="366" x2="947.07" y2="366" stroke="#c05621" stroke-width="4"/>
<line x1="823.05" y1="104" x2="823.54" y2="104" stroke="#c05621" stroke-width="4"/>
<line x1="949.02" y1="366" x2="950.00" y2="366" stroke="#c05621" stroke-width="4"/>
<line x1="824.51" y1="104" x2="825.00" y2="104" stroke="#c05621" stroke-width="4"/>
<text x="825.0" y="396" text-anchor="middle" font-size="16" font-weight="bold" fill="#1d1d1f">Level 4: 256 pieces</text>
<text x="825.0" y="418" text-anchor="middle" font-size="15" fill="#1d1d1f">area = 0.411</text>
<line x1="700.00" y1="360" x2="825.00" y2="110" stroke="#e53e3e" stroke-width="2.5"/>
<line x1="950.00" y1="360" x2="700.00" y2="110" stroke="#e53e3e" stroke-width="2.5"/>
<line x1="887.50" y1="360" x2="731.25" y2="110" stroke="#e53e3e" stroke-width="2.5"/>
<text x="825.0" y="438" text-anchor="middle" font-size="13" fill="#e53e3e">red: three of the needles</text>
<text x="22" y="115" font-size="14" fill="#c05621" text-anchor="start">C/2</text>
<text x="22" y="365" font-size="14" fill="#c05621" text-anchor="start">C</text>
<text x="500" y="497" text-anchor="middle" font-size="15" fill="#1d1d1f">Area of the level-k set (computed by script). It contains a needle in every direction of a 72° fan at every level, </text>
<text x="500" y="515" text-anchor="middle" font-size="15" fill="#1d1d1f">and its area tends to 0 as k grows, but very slowly. The limit set has area 0.</text>
<rect x="128.0" y="550.6" width="53.1" height="84.4" fill="#2b6cb0"/>
<text x="154.5" y="545.6" text-anchor="middle" font-size="12" fill="#1d1d1f">0.750</text>
<text x="154.5" y="651.0" text-anchor="middle" font-size="12" fill="#444">k=0</text>
<rect x="197.1" y="570.3" width="53.1" height="64.7" fill="#2b6cb0"/>
<text x="223.6" y="565.3" text-anchor="middle" font-size="12" fill="#1d1d1f">0.575</text>
<text x="223.6" y="651.0" text-anchor="middle" font-size="12" fill="#444">k=1</text>
<rect x="266.2" y="579.2" width="53.1" height="55.8" fill="#2b6cb0"/>
<text x="292.7" y="574.2" text-anchor="middle" font-size="12" fill="#1d1d1f">0.496</text>
<text x="292.7" y="651.0" text-anchor="middle" font-size="12" fill="#444">k=2</text>
<rect x="335.3" y="584.7" width="53.1" height="50.3" fill="#2b6cb0"/>
<text x="361.8" y="579.7" text-anchor="middle" font-size="12" fill="#1d1d1f">0.447</text>
<text x="361.8" y="651.0" text-anchor="middle" font-size="12" fill="#444">k=3</text>
<rect x="404.4" y="588.8" width="53.1" height="46.2" fill="#2b6cb0"/>
<text x="430.9" y="583.8" text-anchor="middle" font-size="12" fill="#1d1d1f">0.411</text>
<text x="430.9" y="651.0" text-anchor="middle" font-size="12" fill="#444">k=4</text>
<rect x="473.5" y="592.0" width="53.1" height="43.0" fill="#2b6cb0"/>
<text x="500.0" y="587.0" text-anchor="middle" font-size="12" fill="#1d1d1f">0.382</text>
<text x="500.0" y="651.0" text-anchor="middle" font-size="12" fill="#444">k=5</text>
<rect x="542.5" y="594.7" width="53.1" height="40.3" fill="#2b6cb0"/>
<text x="569.1" y="589.7" text-anchor="middle" font-size="12" fill="#1d1d1f">0.359</text>
<text x="569.1" y="651.0" text-anchor="middle" font-size="12" fill="#444">k=6</text>
<rect x="611.6" y="596.9" width="53.1" height="38.1" fill="#2b6cb0"/>
<text x="638.2" y="591.9" text-anchor="middle" font-size="12" fill="#1d1d1f">0.339</text>
<text x="638.2" y="651.0" text-anchor="middle" font-size="12" fill="#444">k=7</text>
<rect x="680.7" y="598.8" width="53.1" height="36.2" fill="#2b6cb0"/>
<text x="707.3" y="593.8" text-anchor="middle" font-size="12" fill="#1d1d1f">0.321</text>
<text x="707.3" y="651.0" text-anchor="middle" font-size="12" fill="#444">k=8</text>
<rect x="749.8" y="600.5" width="53.1" height="34.5" fill="#2b6cb0"/>
<text x="776.4" y="595.5" text-anchor="middle" font-size="12" fill="#1d1d1f">0.306</text>
<text x="776.4" y="651.0" text-anchor="middle" font-size="12" fill="#444">k=9</text>
<rect x="818.9" y="602.0" width="53.1" height="33.0" fill="#2b6cb0"/>
<text x="845.5" y="597.0" text-anchor="middle" font-size="12" fill="#1d1d1f">0.293</text>
<text x="845.5" y="651.0" text-anchor="middle" font-size="12" fill="#444">k=10</text>
<line x1="120" y1="635" x2="880" y2="635" stroke="#444" stroke-width="1"/>
</svg>