<svg xmlns="http://www.w3.org/2000/svg" width="1240" height="590" viewBox="0 0 1240 590">
<rect width="1240" height="590" fill="white"/>
<text x="620.0" y="34.0" font-family="Helvetica, Arial, sans-serif" font-size="19" text-anchor="middle" fill="#1f2933" font-weight="bold" font-style="normal">Why &#x2124;<tspan baseline-shift="sub" font-size="70%">3</tspan> is not a Lie group: every neighbourhood of 0 contains a whole subgroup</text>
<rect x="93.0" y="151" width="250.0" height="243" rx="14" fill="#dbeafe"/>
<rect x="95.0" y="244" width="82.0" height="147" rx="12" fill="#93c5fd"/>
<rect x="97.0" y="342" width="30.0" height="46" rx="10" fill="#60a5fa"/>
<line x1="482.0" y1="90" x2="218.0" y2="175" stroke="#2563eb" stroke-width="3"/>
<line x1="218.0" y1="175" x2="136.0" y2="265" stroke="#2563eb" stroke-width="3"/>
<line x1="136.0" y1="265" x2="112.0" y2="360" stroke="#2563eb" stroke-width="3"/>
<line x1="112.0" y1="360" x2="106.0" y2="382" stroke="#7b8794" stroke-width="1"/>
<line x1="112.0" y1="360" x2="112.0" y2="382" stroke="#7b8794" stroke-width="1"/>
<line x1="112.0" y1="360" x2="118.0" y2="382" stroke="#7b8794" stroke-width="1"/>
<line x1="136.0" y1="265" x2="136.0" y2="360" stroke="#9aa5b1" stroke-width="1.4"/>
<line x1="136.0" y1="360" x2="130.0" y2="382" stroke="#7b8794" stroke-width="1"/>
<line x1="136.0" y1="360" x2="136.0" y2="382" stroke="#7b8794" stroke-width="1"/>
<line x1="136.0" y1="360" x2="142.0" y2="382" stroke="#7b8794" stroke-width="1"/>
<line x1="136.0" y1="265" x2="160.0" y2="360" stroke="#9aa5b1" stroke-width="1.4"/>
<line x1="160.0" y1="360" x2="154.0" y2="382" stroke="#7b8794" stroke-width="1"/>
<line x1="160.0" y1="360" x2="160.0" y2="382" stroke="#7b8794" stroke-width="1"/>
<line x1="160.0" y1="360" x2="166.0" y2="382" stroke="#7b8794" stroke-width="1"/>
<line x1="218.0" y1="175" x2="218.0" y2="265" stroke="#9aa5b1" stroke-width="1.4"/>
<line x1="218.0" y1="265" x2="194.0" y2="360" stroke="#9aa5b1" stroke-width="1.4"/>
<line x1="194.0" y1="360" x2="188.0" y2="382" stroke="#7b8794" stroke-width="1"/>
<line x1="194.0" y1="360" x2="194.0" y2="382" stroke="#7b8794" stroke-width="1"/>
<line x1="194.0" y1="360" x2="200.0" y2="382" stroke="#7b8794" stroke-width="1"/>
<line x1="218.0" y1="265" x2="218.0" y2="360" stroke="#9aa5b1" stroke-width="1.4"/>
<line x1="218.0" y1="360" x2="212.0" y2="382" stroke="#7b8794" stroke-width="1"/>
<line x1="218.0" y1="360" x2="218.0" y2="382" stroke="#7b8794" stroke-width="1"/>
<line x1="218.0" y1="360" x2="224.0" y2="382" stroke="#7b8794" stroke-width="1"/>
<line x1="218.0" y1="265" x2="242.0" y2="360" stroke="#9aa5b1" stroke-width="1.4"/>
<line x1="242.0" y1="360" x2="236.0" y2="382" stroke="#7b8794" stroke-width="1"/>
<line x1="242.0" y1="360" x2="242.0" y2="382" stroke="#7b8794" stroke-width="1"/>
<line x1="242.0" y1="360" x2="248.0" y2="382" stroke="#7b8794" stroke-width="1"/>
<line x1="218.0" y1="175" x2="300.0" y2="265" stroke="#9aa5b1" stroke-width="1.4"/>
<line x1="300.0" y1="265" x2="276.0" y2="360" stroke="#9aa5b1" stroke-width="1.4"/>
<line x1="276.0" y1="360" x2="270.0" y2="382" stroke="#7b8794" stroke-width="1"/>
<line x1="276.0" y1="360" x2="276.0" y2="382" stroke="#7b8794" stroke-width="1"/>
<line x1="276.0" y1="360" x2="282.0" y2="382" stroke="#7b8794" stroke-width="1"/>
<line x1="300.0" y1="265" x2="300.0" y2="360" stroke="#9aa5b1" stroke-width="1.4"/>
<line x1="300.0" y1="360" x2="294.0" y2="382" stroke="#7b8794" stroke-width="1"/>
<line x1="300.0" y1="360" x2="300.0" y2="382" stroke="#7b8794" stroke-width="1"/>
<line x1="300.0" y1="360" x2="306.0" y2="382" stroke="#7b8794" stroke-width="1"/>
<line x1="300.0" y1="265" x2="324.0" y2="360" stroke="#9aa5b1" stroke-width="1.4"/>
<line x1="324.0" y1="360" x2="318.0" y2="382" stroke="#7b8794" stroke-width="1"/>
<line x1="324.0" y1="360" x2="324.0" y2="382" stroke="#7b8794" stroke-width="1"/>
<line x1="324.0" y1="360" x2="330.0" y2="382" stroke="#7b8794" stroke-width="1"/>
<line x1="482.0" y1="90" x2="482.0" y2="175" stroke="#9aa5b1" stroke-width="1.4"/>
<line x1="482.0" y1="175" x2="400.0" y2="265" stroke="#9aa5b1" stroke-width="1.4"/>
<line x1="400.0" y1="265" x2="376.0" y2="360" stroke="#9aa5b1" stroke-width="1.4"/>
<line x1="376.0" y1="360" x2="370.0" y2="382" stroke="#7b8794" stroke-width="1"/>
<line x1="376.0" y1="360" x2="376.0" y2="382" stroke="#7b8794" stroke-width="1"/>
<line x1="376.0" y1="360" x2="382.0" y2="382" stroke="#7b8794" stroke-width="1"/>
<line x1="400.0" y1="265" x2="400.0" y2="360" stroke="#9aa5b1" stroke-width="1.4"/>
<line x1="400.0" y1="360" x2="394.0" y2="382" stroke="#7b8794" stroke-width="1"/>
<line x1="400.0" y1="360" x2="400.0" y2="382" stroke="#7b8794" stroke-width="1"/>
<line x1="400.0" y1="360" x2="406.0" y2="382" stroke="#7b8794" stroke-width="1"/>
<line x1="400.0" y1="265" x2="424.0" y2="360" stroke="#9aa5b1" stroke-width="1.4"/>
<line x1="424.0" y1="360" x2="418.0" y2="382" stroke="#7b8794" stroke-width="1"/>
<line x1="424.0" y1="360" x2="424.0" y2="382" stroke="#7b8794" stroke-width="1"/>
<line x1="424.0" y1="360" x2="430.0" y2="382" stroke="#7b8794" stroke-width="1"/>
<line x1="482.0" y1="175" x2="482.0" y2="265" stroke="#9aa5b1" stroke-width="1.4"/>
<line x1="482.0" y1="265" x2="458.0" y2="360" stroke="#9aa5b1" stroke-width="1.4"/>
<line x1="458.0" y1="360" x2="452.0" y2="382" stroke="#7b8794" stroke-width="1"/>
<line x1="458.0" y1="360" x2="458.0" y2="382" stroke="#7b8794" stroke-width="1"/>
<line x1="458.0" y1="360" x2="464.0" y2="382" stroke="#7b8794" stroke-width="1"/>
<line x1="482.0" y1="265" x2="482.0" y2="360" stroke="#9aa5b1" stroke-width="1.4"/>
<line x1="482.0" y1="360" x2="476.0" y2="382" stroke="#7b8794" stroke-width="1"/>
<line x1="482.0" y1="360" x2="482.0" y2="382" stroke="#7b8794" stroke-width="1"/>
<line x1="482.0" y1="360" x2="488.0" y2="382" stroke="#7b8794" stroke-width="1"/>
<line x1="482.0" y1="265" x2="506.0" y2="360" stroke="#9aa5b1" stroke-width="1.4"/>
<line x1="506.0" y1="360" x2="500.0" y2="382" stroke="#7b8794" stroke-width="1"/>
<line x1="506.0" y1="360" x2="506.0" y2="382" stroke="#7b8794" stroke-width="1"/>
<line x1="506.0" y1="360" x2="512.0" y2="382" stroke="#7b8794" stroke-width="1"/>
<line x1="482.0" y1="175" x2="564.0" y2="265" stroke="#9aa5b1" stroke-width="1.4"/>
<line x1="564.0" y1="265" x2="540.0" y2="360" stroke="#9aa5b1" stroke-width="1.4"/>
<line x1="540.0" y1="360" x2="534.0" y2="382" stroke="#7b8794" stroke-width="1"/>
<line x1="540.0" y1="360" x2="540.0" y2="382" stroke="#7b8794" stroke-width="1"/>
<line x1="540.0" y1="360" x2="546.0" y2="382" stroke="#7b8794" stroke-width="1"/>
<line x1="564.0" y1="265" x2="564.0" y2="360" stroke="#9aa5b1" stroke-width="1.4"/>
<line x1="564.0" y1="360" x2="558.0" y2="382" stroke="#7b8794" stroke-width="1"/>
<line x1="564.0" y1="360" x2="564.0" y2="382" stroke="#7b8794" stroke-width="1"/>
<line x1="564.0" y1="360" x2="570.0" y2="382" stroke="#7b8794" stroke-width="1"/>
<line x1="564.0" y1="265" x2="588.0" y2="360" stroke="#9aa5b1" stroke-width="1.4"/>
<line x1="588.0" y1="360" x2="582.0" y2="382" stroke="#7b8794" stroke-width="1"/>
<line x1="588.0" y1="360" x2="588.0" y2="382" stroke="#7b8794" stroke-width="1"/>
<line x1="588.0" y1="360" x2="594.0" y2="382" stroke="#7b8794" stroke-width="1"/>
<line x1="482.0" y1="90" x2="746.0" y2="175" stroke="#9aa5b1" stroke-width="1.4"/>
<line x1="746.0" y1="175" x2="664.0" y2="265" stroke="#9aa5b1" stroke-width="1.4"/>
<line x1="664.0" y1="265" x2="640.0" y2="360" stroke="#9aa5b1" stroke-width="1.4"/>
<line x1="640.0" y1="360" x2="634.0" y2="382" stroke="#7b8794" stroke-width="1"/>
<line x1="640.0" y1="360" x2="640.0" y2="382" stroke="#7b8794" stroke-width="1"/>
<line x1="640.0" y1="360" x2="646.0" y2="382" stroke="#7b8794" stroke-width="1"/>
<line x1="664.0" y1="265" x2="664.0" y2="360" stroke="#9aa5b1" stroke-width="1.4"/>
<line x1="664.0" y1="360" x2="658.0" y2="382" stroke="#7b8794" stroke-width="1"/>
<line x1="664.0" y1="360" x2="664.0" y2="382" stroke="#7b8794" stroke-width="1"/>
<line x1="664.0" y1="360" x2="670.0" y2="382" stroke="#7b8794" stroke-width="1"/>
<line x1="664.0" y1="265" x2="688.0" y2="360" stroke="#9aa5b1" stroke-width="1.4"/>
<line x1="688.0" y1="360" x2="682.0" y2="382" stroke="#7b8794" stroke-width="1"/>
<line x1="688.0" y1="360" x2="688.0" y2="382" stroke="#7b8794" stroke-width="1"/>
<line x1="688.0" y1="360" x2="694.0" y2="382" stroke="#7b8794" stroke-width="1"/>
<line x1="746.0" y1="175" x2="746.0" y2="265" stroke="#9aa5b1" stroke-width="1.4"/>
<line x1="746.0" y1="265" x2="722.0" y2="360" stroke="#9aa5b1" stroke-width="1.4"/>
<line x1="722.0" y1="360" x2="716.0" y2="382" stroke="#7b8794" stroke-width="1"/>
<line x1="722.0" y1="360" x2="722.0" y2="382" stroke="#7b8794" stroke-width="1"/>
<line x1="722.0" y1="360" x2="728.0" y2="382" stroke="#7b8794" stroke-width="1"/>
<line x1="746.0" y1="265" x2="746.0" y2="360" stroke="#9aa5b1" stroke-width="1.4"/>
<line x1="746.0" y1="360" x2="740.0" y2="382" stroke="#7b8794" stroke-width="1"/>
<line x1="746.0" y1="360" x2="746.0" y2="382" stroke="#7b8794" stroke-width="1"/>
<line x1="746.0" y1="360" x2="752.0" y2="382" stroke="#7b8794" stroke-width="1"/>
<line x1="746.0" y1="265" x2="770.0" y2="360" stroke="#9aa5b1" stroke-width="1.4"/>
<line x1="770.0" y1="360" x2="764.0" y2="382" stroke="#7b8794" stroke-width="1"/>
<line x1="770.0" y1="360" x2="770.0" y2="382" stroke="#7b8794" stroke-width="1"/>
<line x1="770.0" y1="360" x2="776.0" y2="382" stroke="#7b8794" stroke-width="1"/>
<line x1="746.0" y1="175" x2="828.0" y2="265" stroke="#9aa5b1" stroke-width="1.4"/>
<line x1="828.0" y1="265" x2="804.0" y2="360" stroke="#9aa5b1" stroke-width="1.4"/>
<line x1="804.0" y1="360" x2="798.0" y2="382" stroke="#7b8794" stroke-width="1"/>
<line x1="804.0" y1="360" x2="804.0" y2="382" stroke="#7b8794" stroke-width="1"/>
<line x1="804.0" y1="360" x2="810.0" y2="382" stroke="#7b8794" stroke-width="1"/>
<line x1="828.0" y1="265" x2="828.0" y2="360" stroke="#9aa5b1" stroke-width="1.4"/>
<line x1="828.0" y1="360" x2="822.0" y2="382" stroke="#7b8794" stroke-width="1"/>
<line x1="828.0" y1="360" x2="828.0" y2="382" stroke="#7b8794" stroke-width="1"/>
<line x1="828.0" y1="360" x2="834.0" y2="382" stroke="#7b8794" stroke-width="1"/>
<line x1="828.0" y1="265" x2="852.0" y2="360" stroke="#9aa5b1" stroke-width="1.4"/>
<line x1="852.0" y1="360" x2="846.0" y2="382" stroke="#7b8794" stroke-width="1"/>
<line x1="852.0" y1="360" x2="852.0" y2="382" stroke="#7b8794" stroke-width="1"/>
<line x1="852.0" y1="360" x2="858.0" y2="382" stroke="#7b8794" stroke-width="1"/>
<circle cx="112.0" cy="360" r="10" fill="#2563eb" stroke="#2563eb" stroke-width="1.6"/>
<text x="112.0" y="364.0" font-family="Helvetica, Arial, sans-serif" font-size="10" text-anchor="middle" fill="white" font-weight="bold" font-style="normal">0</text>
<circle cx="136.0" cy="360" r="10" fill="white" stroke="#7b8794" stroke-width="1.6"/>
<text x="136.0" y="364.0" font-family="Helvetica, Arial, sans-serif" font-size="10" text-anchor="middle" fill="#1f2933" font-weight="normal" font-style="normal">9</text>
<circle cx="160.0" cy="360" r="10" fill="white" stroke="#7b8794" stroke-width="1.6"/>
<text x="160.0" y="364.0" font-family="Helvetica, Arial, sans-serif" font-size="10" text-anchor="middle" fill="#1f2933" font-weight="normal" font-style="normal">18</text>
<circle cx="194.0" cy="360" r="10" fill="white" stroke="#7b8794" stroke-width="1.6"/>
<text x="194.0" y="364.0" font-family="Helvetica, Arial, sans-serif" font-size="10" text-anchor="middle" fill="#1f2933" font-weight="normal" font-style="normal">3</text>
<circle cx="218.0" cy="360" r="10" fill="white" stroke="#7b8794" stroke-width="1.6"/>
<text x="218.0" y="364.0" font-family="Helvetica, Arial, sans-serif" font-size="10" text-anchor="middle" fill="#1f2933" font-weight="normal" font-style="normal">12</text>
<circle cx="242.0" cy="360" r="10" fill="white" stroke="#7b8794" stroke-width="1.6"/>
<text x="242.0" y="364.0" font-family="Helvetica, Arial, sans-serif" font-size="10" text-anchor="middle" fill="#1f2933" font-weight="normal" font-style="normal">21</text>
<circle cx="276.0" cy="360" r="10" fill="white" stroke="#7b8794" stroke-width="1.6"/>
<text x="276.0" y="364.0" font-family="Helvetica, Arial, sans-serif" font-size="10" text-anchor="middle" fill="#1f2933" font-weight="normal" font-style="normal">6</text>
<circle cx="300.0" cy="360" r="10" fill="white" stroke="#7b8794" stroke-width="1.6"/>
<text x="300.0" y="364.0" font-family="Helvetica, Arial, sans-serif" font-size="10" text-anchor="middle" fill="#1f2933" font-weight="normal" font-style="normal">15</text>
<circle cx="324.0" cy="360" r="10" fill="white" stroke="#7b8794" stroke-width="1.6"/>
<text x="324.0" y="364.0" font-family="Helvetica, Arial, sans-serif" font-size="10" text-anchor="middle" fill="#1f2933" font-weight="normal" font-style="normal">24</text>
<circle cx="376.0" cy="360" r="10" fill="white" stroke="#7b8794" stroke-width="1.6"/>
<text x="376.0" y="364.0" font-family="Helvetica, Arial, sans-serif" font-size="10" text-anchor="middle" fill="#1f2933" font-weight="normal" font-style="normal">1</text>
<circle cx="400.0" cy="360" r="10" fill="white" stroke="#7b8794" stroke-width="1.6"/>
<text x="400.0" y="364.0" font-family="Helvetica, Arial, sans-serif" font-size="10" text-anchor="middle" fill="#1f2933" font-weight="normal" font-style="normal">10</text>
<circle cx="424.0" cy="360" r="10" fill="white" stroke="#7b8794" stroke-width="1.6"/>
<text x="424.0" y="364.0" font-family="Helvetica, Arial, sans-serif" font-size="10" text-anchor="middle" fill="#1f2933" font-weight="normal" font-style="normal">19</text>
<circle cx="458.0" cy="360" r="10" fill="white" stroke="#7b8794" stroke-width="1.6"/>
<text x="458.0" y="364.0" font-family="Helvetica, Arial, sans-serif" font-size="10" text-anchor="middle" fill="#1f2933" font-weight="normal" font-style="normal">4</text>
<circle cx="482.0" cy="360" r="10" fill="white" stroke="#7b8794" stroke-width="1.6"/>
<text x="482.0" y="364.0" font-family="Helvetica, Arial, sans-serif" font-size="10" text-anchor="middle" fill="#1f2933" font-weight="normal" font-style="normal">13</text>
<circle cx="506.0" cy="360" r="10" fill="white" stroke="#7b8794" stroke-width="1.6"/>
<text x="506.0" y="364.0" font-family="Helvetica, Arial, sans-serif" font-size="10" text-anchor="middle" fill="#1f2933" font-weight="normal" font-style="normal">22</text>
<circle cx="540.0" cy="360" r="10" fill="white" stroke="#7b8794" stroke-width="1.6"/>
<text x="540.0" y="364.0" font-family="Helvetica, Arial, sans-serif" font-size="10" text-anchor="middle" fill="#1f2933" font-weight="normal" font-style="normal">7</text>
<circle cx="564.0" cy="360" r="10" fill="white" stroke="#7b8794" stroke-width="1.6"/>
<text x="564.0" y="364.0" font-family="Helvetica, Arial, sans-serif" font-size="10" text-anchor="middle" fill="#1f2933" font-weight="normal" font-style="normal">16</text>
<circle cx="588.0" cy="360" r="10" fill="white" stroke="#7b8794" stroke-width="1.6"/>
<text x="588.0" y="364.0" font-family="Helvetica, Arial, sans-serif" font-size="10" text-anchor="middle" fill="#1f2933" font-weight="normal" font-style="normal">25</text>
<circle cx="640.0" cy="360" r="10" fill="white" stroke="#7b8794" stroke-width="1.6"/>
<text x="640.0" y="364.0" font-family="Helvetica, Arial, sans-serif" font-size="10" text-anchor="middle" fill="#1f2933" font-weight="normal" font-style="normal">2</text>
<circle cx="664.0" cy="360" r="10" fill="white" stroke="#7b8794" stroke-width="1.6"/>
<text x="664.0" y="364.0" font-family="Helvetica, Arial, sans-serif" font-size="10" text-anchor="middle" fill="#1f2933" font-weight="normal" font-style="normal">11</text>
<circle cx="688.0" cy="360" r="10" fill="white" stroke="#7b8794" stroke-width="1.6"/>
<text x="688.0" y="364.0" font-family="Helvetica, Arial, sans-serif" font-size="10" text-anchor="middle" fill="#1f2933" font-weight="normal" font-style="normal">20</text>
<circle cx="722.0" cy="360" r="10" fill="white" stroke="#7b8794" stroke-width="1.6"/>
<text x="722.0" y="364.0" font-family="Helvetica, Arial, sans-serif" font-size="10" text-anchor="middle" fill="#1f2933" font-weight="normal" font-style="normal">5</text>
<circle cx="746.0" cy="360" r="10" fill="white" stroke="#7b8794" stroke-width="1.6"/>
<text x="746.0" y="364.0" font-family="Helvetica, Arial, sans-serif" font-size="10" text-anchor="middle" fill="#1f2933" font-weight="normal" font-style="normal">14</text>
<circle cx="770.0" cy="360" r="10" fill="white" stroke="#7b8794" stroke-width="1.6"/>
<text x="770.0" y="364.0" font-family="Helvetica, Arial, sans-serif" font-size="10" text-anchor="middle" fill="#1f2933" font-weight="normal" font-style="normal">23</text>
<circle cx="804.0" cy="360" r="10" fill="white" stroke="#7b8794" stroke-width="1.6"/>
<text x="804.0" y="364.0" font-family="Helvetica, Arial, sans-serif" font-size="10" text-anchor="middle" fill="#1f2933" font-weight="normal" font-style="normal">8</text>
<circle cx="828.0" cy="360" r="10" fill="white" stroke="#7b8794" stroke-width="1.6"/>
<text x="828.0" y="364.0" font-family="Helvetica, Arial, sans-serif" font-size="10" text-anchor="middle" fill="#1f2933" font-weight="normal" font-style="normal">17</text>
<circle cx="852.0" cy="360" r="10" fill="white" stroke="#7b8794" stroke-width="1.6"/>
<text x="852.0" y="364.0" font-family="Helvetica, Arial, sans-serif" font-size="10" text-anchor="middle" fill="#1f2933" font-weight="normal" font-style="normal">26</text>
<circle cx="136.0" cy="265" r="12" fill="#2563eb" stroke="#2563eb" stroke-width="1.6"/>
<text x="136.0" y="270.0" font-family="Helvetica, Arial, sans-serif" font-size="12" text-anchor="middle" fill="white" font-weight="bold" font-style="normal">0</text>
<circle cx="218.0" cy="265" r="12" fill="white" stroke="#7b8794" stroke-width="1.6"/>
<text x="218.0" y="270.0" font-family="Helvetica, Arial, sans-serif" font-size="12" text-anchor="middle" fill="#1f2933" font-weight="normal" font-style="normal">3</text>
<circle cx="300.0" cy="265" r="12" fill="white" stroke="#7b8794" stroke-width="1.6"/>
<text x="300.0" y="270.0" font-family="Helvetica, Arial, sans-serif" font-size="12" text-anchor="middle" fill="#1f2933" font-weight="normal" font-style="normal">6</text>
<circle cx="218.0" cy="175" r="14" fill="#2563eb" stroke="#2563eb" stroke-width="1.6"/>
<text x="218.0" y="180.0" font-family="Helvetica, Arial, sans-serif" font-size="14" text-anchor="middle" fill="white" font-weight="bold" font-style="normal">0</text>
<circle cx="400.0" cy="265" r="12" fill="white" stroke="#7b8794" stroke-width="1.6"/>
<text x="400.0" y="270.0" font-family="Helvetica, Arial, sans-serif" font-size="12" text-anchor="middle" fill="#1f2933" font-weight="normal" font-style="normal">1</text>
<circle cx="482.0" cy="265" r="12" fill="white" stroke="#7b8794" stroke-width="1.6"/>
<text x="482.0" y="270.0" font-family="Helvetica, Arial, sans-serif" font-size="12" text-anchor="middle" fill="#1f2933" font-weight="normal" font-style="normal">4</text>
<circle cx="564.0" cy="265" r="12" fill="white" stroke="#7b8794" stroke-width="1.6"/>
<text x="564.0" y="270.0" font-family="Helvetica, Arial, sans-serif" font-size="12" text-anchor="middle" fill="#1f2933" font-weight="normal" font-style="normal">7</text>
<circle cx="482.0" cy="175" r="14" fill="white" stroke="#7b8794" stroke-width="1.6"/>
<text x="482.0" y="180.0" font-family="Helvetica, Arial, sans-serif" font-size="14" text-anchor="middle" fill="#1f2933" font-weight="normal" font-style="normal">1</text>
<circle cx="664.0" cy="265" r="12" fill="white" stroke="#7b8794" stroke-width="1.6"/>
<text x="664.0" y="270.0" font-family="Helvetica, Arial, sans-serif" font-size="12" text-anchor="middle" fill="#1f2933" font-weight="normal" font-style="normal">2</text>
<circle cx="746.0" cy="265" r="12" fill="white" stroke="#7b8794" stroke-width="1.6"/>
<text x="746.0" y="270.0" font-family="Helvetica, Arial, sans-serif" font-size="12" text-anchor="middle" fill="#1f2933" font-weight="normal" font-style="normal">5</text>
<circle cx="828.0" cy="265" r="12" fill="white" stroke="#7b8794" stroke-width="1.6"/>
<text x="828.0" y="270.0" font-family="Helvetica, Arial, sans-serif" font-size="12" text-anchor="middle" fill="#1f2933" font-weight="normal" font-style="normal">8</text>
<circle cx="746.0" cy="175" r="14" fill="white" stroke="#7b8794" stroke-width="1.6"/>
<text x="746.0" y="180.0" font-family="Helvetica, Arial, sans-serif" font-size="14" text-anchor="middle" fill="#1f2933" font-weight="normal" font-style="normal">2</text>
<circle cx="482.0" cy="90" r="15" fill="#2563eb" stroke="#2563eb" stroke-width="1.6"/>
<text x="482.0" y="95.0" font-family="Helvetica, Arial, sans-serif" font-size="13" text-anchor="middle" fill="white" font-weight="bold" font-style="normal">&#x2124;<tspan baseline-shift='sub' font-size='70%'>3</tspan></text>
<text x="20.0" y="180.0" font-family="Helvetica, Arial, sans-serif" font-size="12" text-anchor="start" fill="#52606d" font-weight="normal" font-style="normal">mod 3</text>
<text x="20.0" y="270.0" font-family="Helvetica, Arial, sans-serif" font-size="12" text-anchor="start" fill="#52606d" font-weight="normal" font-style="normal">mod 9</text>
<text x="20.0" y="365.0" font-family="Helvetica, Arial, sans-serif" font-size="12" text-anchor="start" fill="#52606d" font-weight="normal" font-style="normal">mod 27</text>
<rect x="112" y="410" width="16" height="16" rx="3" fill="#dbeafe"/>
<text x="134.0" y="423.0" font-family="Helvetica, Arial, sans-serif" font-size="12.5" text-anchor="start" fill="#1e3a8a" font-weight="normal" font-style="normal">3&#x2124;<tspan baseline-shift="sub" font-size="70%">3</tspan> = all x with |x|<tspan baseline-shift='sub' font-size='70%'>3</tspan> &#8804; 1/3</text>
<rect x="342" y="410" width="16" height="16" rx="3" fill="#93c5fd"/>
<text x="364.0" y="423.0" font-family="Helvetica, Arial, sans-serif" font-size="12.5" text-anchor="start" fill="#1e3a8a" font-weight="normal" font-style="normal">9&#x2124;<tspan baseline-shift="sub" font-size="70%">3</tspan>: |x|<tspan baseline-shift='sub' font-size='70%'>3</tspan> &#8804; 1/9</text>
<rect x="492" y="410" width="16" height="16" rx="3" fill="#60a5fa"/>
<text x="514.0" y="423.0" font-family="Helvetica, Arial, sans-serif" font-size="12.5" text-anchor="start" fill="#1e3a8a" font-weight="normal" font-style="normal">27&#x2124;<tspan baseline-shift="sub" font-size="70%">3</tspan>: |x|<tspan baseline-shift='sub' font-size='70%'>3</tspan> &#8804; 1/27</text>
<text x="872.0" y="423.0" font-family="Helvetica, Arial, sans-serif" font-size="12" text-anchor="end" fill="#52606d" font-weight="normal" font-style="normal">&#8942; the tree goes on forever</text>
<text x="112.0" y="470.0" font-family="Helvetica, Arial, sans-serif" font-size="13" text-anchor="start" fill="#1f2933" font-weight="normal" font-style="normal">A point of &#x2124;<tspan baseline-shift="sub" font-size="70%">3</tspan> is an infinite path down the tree, i.e. a digit string ...d<tspan baseline-shift='sub' font-size='70%'>2</tspan>d<tspan baseline-shift='sub' font-size='70%'>1</tspan>d<tspan baseline-shift='sub' font-size='70%'>0</tspan> in base 3.</text>
<text x="112.0" y="490.0" font-family="Helvetica, Arial, sans-serif" font-size="13" text-anchor="start" fill="#1f2933" font-weight="normal" font-style="normal">Examples: &#8722;1 = ...2222,  1/2 = ...1112,  81 = ...10000.</text>
<text x="112.0" y="510.0" font-family="Helvetica, Arial, sans-serif" font-size="13" text-anchor="start" fill="#1f2933" font-weight="normal" font-style="normal">The branch below the k-th zero is the subgroup 3<tspan baseline-shift='super' font-size='70%'>k</tspan>&#x2124;<tspan baseline-shift="sub" font-size="70%">3</tspan>: it is open, closed and a group.</text>
<text x="112.0" y="530.0" font-family="Helvetica, Arial, sans-serif" font-size="13" text-anchor="start" fill="#1f2933" font-weight="normal" font-style="normal">These subgroups shrink to {0}, so no neighbourhood of 0 is free of subgroups,</text>
<text x="112.0" y="550.0" font-family="Helvetica, Arial, sans-serif" font-size="13" text-anchor="start" fill="#1f2933" font-weight="normal" font-style="normal">and different branches never touch: the space is totally disconnected.</text>
<line x1="902.0" y1="70" x2="902.0" y2="560" stroke="#e4e7eb" stroke-width="2"/>
<text x="1071.0" y="82.0" font-family="Helvetica, Arial, sans-serif" font-size="15" text-anchor="middle" fill="#1f2933" font-weight="bold" font-style="normal">Contrast: the circle &#8477;/&#8484;</text>
<circle cx="1071.0" cy="245" r="100" fill="none" stroke="#7b8794" stroke-width="2"/>
<path d="M 1141.7 315.7 A 100 100 0 0 0 1141.7 174.3" fill="none" stroke="#059669" stroke-width="10" stroke-opacity="0.45"/>
<text x="1116.0" y="375.0" font-family="Helvetica, Arial, sans-serif" font-size="12" text-anchor="middle" fill="#059669" font-weight="bold" font-style="normal">green arc: N = (&#8722;1/8, 1/8) turn</text>
<circle cx="1171.0" cy="245.0" r="5" fill="#2563eb"/>
<text x="1149.0" y="249.0" font-family="Helvetica, Arial, sans-serif" font-size="11" text-anchor="middle" fill="#2563eb" font-weight="normal" font-style="normal">0</text>
<circle cx="1169.2" cy="226.3" r="5" fill="#2563eb"/>
<text x="1147.6" y="234.4" font-family="Helvetica, Arial, sans-serif" font-size="11" text-anchor="middle" fill="#2563eb" font-weight="normal" font-style="normal">x</text>
<circle cx="1164.0" cy="208.2" r="5" fill="#2563eb"/>
<text x="1143.5" y="220.3" font-family="Helvetica, Arial, sans-serif" font-size="11" text-anchor="middle" fill="#2563eb" font-weight="normal" font-style="normal">2x</text>
<circle cx="1155.4" cy="191.4" r="5" fill="#2563eb"/>
<text x="1136.9" y="207.2" font-family="Helvetica, Arial, sans-serif" font-size="11" text-anchor="middle" fill="#2563eb" font-weight="normal" font-style="normal">3x</text>
<circle cx="1143.9" cy="176.5" r="5" fill="#2563eb"/>
<text x="1127.9" y="195.6" font-family="Helvetica, Arial, sans-serif" font-size="11" text-anchor="middle" fill="#2563eb" font-weight="normal" font-style="normal">4x</text>
<circle cx="1129.8" cy="164.1" r="5" fill="#dc2626"/>
<text x="1116.8" y="185.9" font-family="Helvetica, Arial, sans-serif" font-size="11" text-anchor="middle" fill="#dc2626" font-weight="normal" font-style="normal">5x</text>
<text x="1071.0" y="400.0" font-family="Helvetica, Arial, sans-serif" font-size="12.5" text-anchor="middle" fill="#1f2933" font-weight="normal" font-style="normal">x = 0.03 turn: the multiples x, 2x, ...</text>
<text x="1071.0" y="419.0" font-family="Helvetica, Arial, sans-serif" font-size="12.5" text-anchor="middle" fill="#1f2933" font-weight="normal" font-style="normal">leave N at 5x = 0.15. Every x &#8800; 0</text>
<text x="1071.0" y="438.0" font-family="Helvetica, Arial, sans-serif" font-size="12.5" text-anchor="middle" fill="#1f2933" font-weight="normal" font-style="normal">escapes, so N contains no subgroup</text>
<text x="1071.0" y="457.0" font-family="Helvetica, Arial, sans-serif" font-size="12.5" text-anchor="middle" fill="#1f2933" font-weight="normal" font-style="normal">except {0}: the circle has no small</text>
<text x="1071.0" y="476.0" font-family="Helvetica, Arial, sans-serif" font-size="12.5" text-anchor="middle" fill="#1f2933" font-weight="normal" font-style="normal">subgroups. Lie groups all behave</text>
<text x="1071.0" y="495.0" font-family="Helvetica, Arial, sans-serif" font-size="12.5" text-anchor="middle" fill="#1f2933" font-weight="normal" font-style="normal">like this; &#x2124;<tspan baseline-shift="sub" font-size="70%">p</tspan> does not.</text>
</svg>
